<?xml version="1.0" encoding="utf-8"?>
<!-- Generator: Adobe Illustrator 16.0.0, SVG Export Plug-In . SVG Version: 6.00 Build 0)  -->
<!DOCTYPE svg PUBLIC "-//W3C//DTD SVG 1.1//EN" "http://www.w3.org/Graphics/SVG/1.1/DTD/svg11.dtd">
<svg version="1.1" id="Layer_1" xmlns="http://www.w3.org/2000/svg" xmlns:xlink="http://www.w3.org/1999/xlink" x="0px" y="0px"
	 width="18px" height="18px" viewBox="0 0 18 18" enable-background="new 0 0 18 18" xml:space="preserve">
<g>
	<g>
		<g>
			<path fill-rule="evenodd" clip-rule="evenodd" fill="#B3B3B3" d="M12.473,1.338c-0.372,0.067-0.604,0.625-0.297,1.102
				c2.047,1.615,3.36,4.119,3.36,6.929c0,2.811-1.314,5.315-3.363,6.93c-0.354,0.659-0.196,1.199,0.232,1.202
				c2.597-1.827,4.071-4.708,4.071-8.131C16.477,6.036,14.981,3.294,12.473,1.338z M9.634,4.3C8.987,4.406,8.831,4.842,9.019,5.46
				c1.31,1.033,2.039,2.23,2.039,4.028c0,1.798-0.687,3.126-1.998,4.16c-0.237,0.596-0.234,0.894,0.348,1.17
				c1.541-1.322,2.626-3.139,2.626-5.328C12.034,7.356,11.107,5.62,9.634,4.3z"/>
		</g>
	</g>
	<g>
		<g>
			<path fill="none" stroke="#B3B3B3" stroke-miterlimit="10" d="M4.896,13.017H4.12c-0.884,0-1.6,0.716-1.6,1.6v0.768
				c0,0.884,0.716,1.6,1.6,1.6h0.776c0.884,0,1.6-0.716,1.6-1.6v-0.768C6.496,13.732,5.78,13.017,4.896,13.017z M4.896,7.517H4.12
				c-0.884,0-1.6,0.716-1.6,1.6v0.768c0,0.884,0.716,1.6,1.6,1.6h0.776c0.884,0,1.6-0.716,1.6-1.6V9.116
				C6.496,8.232,5.78,7.517,4.896,7.517z M3.906,5.983h0.776c0.884,0,1.6-0.716,1.6-1.6V3.616c0-0.884-0.716-1.6-1.6-1.6H3.906
				c-0.884,0-1.6,0.716-1.6,1.6v0.768C2.306,5.268,3.022,5.983,3.906,5.983z"/>
		</g>
	</g>
</g>
</svg>
