<?xml version="1.0" encoding="utf-8"?>
<!-- Generator: Adobe Illustrator 16.0.0, SVG Export Plug-In . SVG Version: 6.00 Build 0)  -->
<!DOCTYPE svg PUBLIC "-//W3C//DTD SVG 1.1//EN" "http://www.w3.org/Graphics/SVG/1.1/DTD/svg11.dtd">
<svg version="1.1" id="Layer_1" xmlns="http://www.w3.org/2000/svg" xmlns:xlink="http://www.w3.org/1999/xlink" x="0px" y="0px"
	 width="32px" height="32px" viewBox="0 0 32 32" enable-background="new 0 0 32 32" xml:space="preserve">
<g>
	<g>
		<path fill-rule="evenodd" clip-rule="evenodd" fill="#B3B3B3" d="M29.983,3.011H2.017c-0.553,0-1,0.447-1,1v18.94
			c0,0.553,0.447,1,1,1h10.998l-0.005,2.045H9.006c-0.553,0-1,0.448-1,1v0.993c0,0.552,0.447,1,1,1h13.979c0.553,0,1-0.448,1-1
			v-0.993c0-0.552-0.447-1-1-1h-3.979v-2.045h10.979c0.553,0,1-0.447,1-1V4.011C30.983,3.458,30.536,3.011,29.983,3.011z
			 M23.015,26.984v0.969h-14v-0.969h5v-3.031h3.969v3.031H23.015z M29.983,21.951c0,0.553-0.447,1-1,1H3.017c-0.553,0-1-0.447-1-1
			V5.011c0-0.553,0.447-1,1-1h25.967c0.553,0,1,0.447,1,1V21.951z"/>
	</g>
</g>
</svg>
