<?xml version="1.0" encoding="utf-8"?>
<!-- Generator: Adobe Illustrator 16.0.0, SVG Export Plug-In . SVG Version: 6.00 Build 0)  -->
<!DOCTYPE svg PUBLIC "-//W3C//DTD SVG 1.1//EN" "http://www.w3.org/Graphics/SVG/1.1/DTD/svg11.dtd">
<svg version="1.1" id="Layer_1" xmlns="http://www.w3.org/2000/svg" xmlns:xlink="http://www.w3.org/1999/xlink" x="0px" y="0px"
	 width="18px" height="18px" viewBox="0 0 18 18" enable-background="new 0 0 18 18" xml:space="preserve">
<g>
	<path fill="#B3B3B3" d="M8.858,11.863c-1.451,0-2.844-1.2-2.844-2.674V2.745c0-1.474,1.393-2.674,2.844-2.674
		c1.451,0,3.058,1.2,3.058,2.674v6.444C11.916,10.663,10.309,11.863,8.858,11.863z M8.85,0.968c-1.143,0-1.932,0.616-1.932,1.777
		v6.444c0,1.161,0.789,1.777,1.932,1.777c1.144,0,2.154-0.645,2.154-1.807V2.717C11.004,1.556,9.994,0.968,8.85,0.968z"/>
	<path fill="#B3B3B3" d="M8.964,13.963c-2.428,0-4.963-2.007-4.963-4.474V4.965h0.991v4.524c0,2.121,1.884,3.501,3.972,3.501
		c2.088,0,4.014-1.38,4.014-3.501V4.965h1.02v4.524C13.998,11.956,11.664,13.963,8.964,13.963z"/>
	<path fill="#B3B3B3" d="M11.977,17.929H6.015v-0.973h5.962V17.929z"/>
	<path fill="#B3B3B3" d="M9.417,17.039H8.483v-3.295h0.933V17.039z"/>
</g>
</svg>
