<?xml version="1.0" encoding="utf-8"?>
<!-- Generator: Adobe Illustrator 16.0.0, SVG Export Plug-In . SVG Version: 6.00 Build 0)  -->
<!DOCTYPE svg PUBLIC "-//W3C//DTD SVG 1.1//EN" "http://www.w3.org/Graphics/SVG/1.1/DTD/svg11.dtd">
<svg version="1.1" id="Layer_1" xmlns="http://www.w3.org/2000/svg" xmlns:xlink="http://www.w3.org/1999/xlink" x="0px" y="0px"
	 width="45px" height="45px" viewBox="0 0 45 45" enable-background="new 0 0 45 45" xml:space="preserve">
<g>
	<path fill="none" stroke="#0684BD" stroke-miterlimit="10" d="M22.5,0.5c12.15,0,22,9.851,22,22c0,12.15-9.852,22-22,22
		c-12.151,0-22.001-9.85-22.001-22C0.499,10.351,10.35,0.5,22.5,0.5z"/>
</g>
<g enable-background="new    ">
	<path fill="#0684BD" d="M14.692,13.932h1.056v17.136h-1.056V13.932z"/>
	<path fill="#0684BD" d="M18.772,13.932h5.615c1.536,0,2.812,0.239,3.828,0.72c1.016,0.48,1.827,1.12,2.437,1.92
		c0.607,0.801,1.035,1.712,1.283,2.736c0.248,1.023,0.372,2.08,0.372,3.168c0,1.215-0.155,2.348-0.468,3.395
		c-0.312,1.049-0.797,1.957-1.452,2.725c-0.656,0.768-1.484,1.373-2.483,1.812c-1,0.439-2.188,0.66-3.564,0.66h-5.567V13.932z
		 M24.436,30.156c0.801,0,1.604-0.125,2.412-0.373c0.808-0.248,1.54-0.662,2.196-1.248c0.655-0.584,1.188-1.367,1.596-2.352
		c0.408-0.984,0.612-2.219,0.612-3.708c0-1.168-0.116-2.168-0.348-3c-0.232-0.832-0.537-1.532-0.912-2.101
		c-0.377-0.567-0.809-1.016-1.297-1.344c-0.488-0.327-0.992-0.58-1.512-0.756s-1.04-0.292-1.561-0.348
		c-0.52-0.057-0.987-0.084-1.403-0.084h-4.392v15.312H24.436z"/>
</g>
</svg>
