<?xml version="1.0" encoding="utf-8"?>
<!-- Generator: Adobe Illustrator 16.0.0, SVG Export Plug-In . SVG Version: 6.00 Build 0)  -->
<!DOCTYPE svg PUBLIC "-//W3C//DTD SVG 1.1//EN" "http://www.w3.org/Graphics/SVG/1.1/DTD/svg11.dtd">
<svg version="1.1" id="Layer_1" xmlns="http://www.w3.org/2000/svg" xmlns:xlink="http://www.w3.org/1999/xlink" x="0px" y="0px"
	 width="45px" height="45px" viewBox="0 0 45 45" enable-background="new 0 0 45 45" xml:space="preserve">
<g>
	<path fill="none" stroke="#0684BD" stroke-miterlimit="10" d="M22.5,0.5c12.15,0,22,9.851,22,22c0,12.15-9.852,22-22,22
		c-12.151,0-22.001-9.85-22.001-22C0.499,10.351,10.35,0.5,22.5,0.5z"/>
</g>
<g>
	<path fill="#0684BD" d="M35.498,11.008h-3.361c-0.021-0.003-0.039-0.013-0.061-0.013H13.718c-0.021,0-0.037,0.01-0.059,0.013H9.378
		c-0.324,0-0.463,0.185-0.463,0.511c0,0.323,0.139,0.494,0.463,0.494h3.782v21.564c0,0.323,0.232,0.43,0.558,0.43h12.421
		c0.149,0,0.299-0.041,0.416-0.155l5.938-5.802c0.105-0.106,0.173-0.256,0.173-0.416V14.876h-1.011v12.117h-5.516
		c-0.326,0-0.475,0.315-0.475,0.641v5.355H14.175V12.012h17.479v4.55h1.009v-4.55h2.835c0.324,0,0.587-0.17,0.587-0.494
		C36.085,11.193,35.822,11.008,35.498,11.008z M26.68,28.004h4.157l-4.157,4.049V28.004z"/>
	<path fill="#0684BD" d="M17.146,19.019c0,0.324,0.137,0.494,0.462,0.494h7.518v-1.005h-7.518
		C17.282,18.507,17.146,18.693,17.146,19.019z"/>
	<path fill="#0684BD" d="M17.607,23.012h10.495c0.323,0,0.588-0.169,0.588-0.493c0-0.326-0.265-0.512-0.588-0.512H17.607
		c-0.325,0-0.462,0.186-0.462,0.512C17.146,22.842,17.282,23.012,17.607,23.012z"/>
</g>
</svg>
