<?xml version="1.0" encoding="utf-8"?>
<!-- Generator: Adobe Illustrator 16.0.0, SVG Export Plug-In . SVG Version: 6.00 Build 0)  -->
<!DOCTYPE svg PUBLIC "-//W3C//DTD SVG 1.1//EN" "http://www.w3.org/Graphics/SVG/1.1/DTD/svg11.dtd">
<svg version="1.1" id="Layer_1" xmlns="http://www.w3.org/2000/svg" xmlns:xlink="http://www.w3.org/1999/xlink" x="0px" y="0px"
	 width="45px" height="45px" viewBox="0 0 45 45" enable-background="new 0 0 45 45" xml:space="preserve">
<g>
	<path fill="none" stroke="#0684BD" stroke-miterlimit="10" d="M22.5,0.5c12.15,0,22,9.851,22,22c0,12.15-9.852,22-22,22
		c-12.151,0-22.001-9.85-22.001-22C0.499,10.351,10.35,0.5,22.5,0.5z"/>
</g>
<g>
	<g>
		<path fill-rule="evenodd" clip-rule="evenodd" fill="#0684BD" d="M36.109,14.562v-1.558H10.144v18.992h25.966V14.857l0.04-0.041
			L36.109,14.562z M10.936,13.81h24.383v0.684l-10.134,10.31c-1.27,1.291-3.328,1.291-4.596,0l-9.654-9.978V13.81z M35.319,28.601
			l-6.988-5.829l6.988-7.11V28.601z M10.936,16.152l6.727,6.844l-6.727,5.762V16.152z M10.936,31.18v-1.341l7.303-6.258l2.351,2.392
			c1.268,1.291,3.326,1.291,4.596,0l2.568-2.613l7.527,6.277l0.038-0.047v1.59H10.936z"/>
	</g>
</g>
</svg>
