<?xml version="1.0" encoding="utf-8"?>
<!-- Generator: Adobe Illustrator 14.0.0, SVG Export Plug-In . SVG Version: 6.00 Build 43363)  -->
<!DOCTYPE svg PUBLIC "-//W3C//DTD SVG 1.1//EN" "http://www.w3.org/Graphics/SVG/1.1/DTD/svg11.dtd">
<svg version="1.1" id="Layer_1" xmlns="http://www.w3.org/2000/svg" xmlns:xlink="http://www.w3.org/1999/xlink" x="0px" y="0px"
	 width="16px" height="16px" viewBox="0 0 16 16" enable-background="new 0 0 16 16" xml:space="preserve">
<g>
	<g>
		<g>
			<path fill="#FFFFFF" stroke="#CBCBCB" stroke-width="2" d="M14.399,1.592c0.379,0.363,0.616,0.875,0.616,1.443v9.875
				c0,1.104-0.896,2-2,2H3.141c-0.552,0-1.052-0.225-1.415-0.586"/>
			<path fill="#FFFFFF" stroke="#989798" stroke-width="2" d="M1.726,14.324c-0.361-0.361-0.585-0.861-0.585-1.414V3.035
				c0-1.105,0.896-2,2-2h9.875c0.536,0,1.024,0.211,1.384,0.557"/>
		</g>
		<linearGradient id="SVGID_1_" gradientUnits="userSpaceOnUse" x1="9.2295" y1="0.895" x2="9.2295" y2="12.229">
			<stop  offset="0" style="stop-color:#7DC359"/>
			<stop  offset="0.2347" style="stop-color:#79BE57"/>
			<stop  offset="0.4493" style="stop-color:#6CB253"/>
			<stop  offset="0.6559" style="stop-color:#58A34D"/>
			<stop  offset="0.8565" style="stop-color:#399046"/>
			<stop  offset="1" style="stop-color:#0C8140"/>
		</linearGradient>
		<polygon fill="url(#SVGID_1_)" points="13.282,0.529 7.892,8.318 5.897,5.479 2.942,5.479 8.082,12.283 15.516,0.529 		"/>
	</g>
</g>
</svg>
