<?xml version="1.0" encoding="utf-8"?>
<!-- Generator: Adobe Illustrator 16.0.0, SVG Export Plug-In . SVG Version: 6.00 Build 0)  -->
<!DOCTYPE svg PUBLIC "-//W3C//DTD SVG 1.1//EN" "http://www.w3.org/Graphics/SVG/1.1/DTD/svg11.dtd">
<svg version="1.1" id="Layer_1" xmlns="http://www.w3.org/2000/svg" xmlns:xlink="http://www.w3.org/1999/xlink" x="0px" y="0px"
	 width="18px" height="18px" viewBox="0 0 18 18" enable-background="new 0 0 18 18" xml:space="preserve">
<g>
	<g>
		<path fill-rule="evenodd" clip-rule="evenodd" fill="#B3B3B3" d="M6.498,6.468h4.955c0.551,0,1-0.448,1-1V2.515
			c0-0.552-0.449-1-1-1H6.498c-0.553,0-1,0.448-1,1v2.953C5.498,6.02,5.945,6.468,6.498,6.468z M6.48,2.492h5.014v2.993H6.48V2.492z
			 M10.51,11.452h-2.98c-0.552,0-1,0.448-1,1.001v2.992c0,0.552,0.448,1,1,1h2.98c0.553,0,1-0.448,1-1v-2.992
			C11.51,11.9,11.062,11.452,10.51,11.452z M10.535,15.438h-3.03v-2.993h3.03V15.438z M3.511,9.494h5.016v0.992h0.984V9.494h5.008
			V8.506H9.511V7.503H8.527v1.003H3.511V8.502H2.526v1.984h0.984V9.494z M15.512,8.502h-0.984v1.984h0.984V8.502z M16.471,11.492
			h-2.98c-0.553,0-1,0.448-1,1v2.993c0,0.552,0.447,1,1,1h2.98c0.551,0,1-0.448,1-1v-2.993
			C17.471,11.94,17.021,11.492,16.471,11.492z M16.496,15.478h-3.031v-2.994h3.031V15.478z M4.51,11.452H1.53
			c-0.552,0-1,0.448-1,1.001v2.992c0,0.552,0.448,1,1,1h2.98c0.552,0,1-0.448,1-1v-2.992C5.51,11.9,5.062,11.452,4.51,11.452z
			 M4.536,15.438h-3.03v-2.993h3.03V15.438z"/>
	</g>
</g>
</svg>
