<?xml version="1.0" encoding="utf-8"?>
<!-- Generator: Adobe Illustrator 16.0.0, SVG Export Plug-In . SVG Version: 6.00 Build 0)  -->
<!DOCTYPE svg PUBLIC "-//W3C//DTD SVG 1.1//EN" "http://www.w3.org/Graphics/SVG/1.1/DTD/svg11.dtd">
<svg version="1.1" id="Layer_1" xmlns="http://www.w3.org/2000/svg" xmlns:xlink="http://www.w3.org/1999/xlink" x="0px" y="0px"
	 width="45px" height="45px" viewBox="0 0 45 45" enable-background="new 0 0 45 45" xml:space="preserve">
<g>
	<path fill="none" stroke="#0684BD" stroke-miterlimit="10" d="M22.5,0.5c12.15,0,22,9.851,22,22c0,12.15-9.852,22-22,22
		c-12.151,0-22.001-9.85-22.001-22C0.499,10.351,10.35,0.5,22.5,0.5z"/>
</g>
<path fill-rule="evenodd" clip-rule="evenodd" fill="#0684BD" d="M35.963,27.77c-0.07,1.199-1.057,2.156-2.27,2.156
	c-1.26,0-2.213-1.027-2.213-2.291v-6.4c0-1.049,0.66-1.925,1.604-2.198c-1.287-5.223-5.591-8.857-10.583-8.874
	c-4.994,0.017-9.298,3.651-10.585,8.874c0.942,0.272,1.604,1.149,1.604,2.198v6.4c0,1.264-0.953,2.291-2.213,2.291
	c-1.214,0-2.199-0.957-2.27-2.156c-1.026-0.801-1.638-2.023-1.638-3.336s0.611-2.535,1.638-3.333
	c0.059-1.001,0.759-1.826,1.693-2.074c1.328-5.803,6.206-9.989,11.736-10.023V9c0.011,0,0.021,0.001,0.033,0.001S22.522,9,22.533,9
	v0.003c5.53,0.034,10.408,4.22,11.736,10.023c0.935,0.248,1.635,1.073,1.693,2.074c1.026,0.799,1.638,2.021,1.638,3.333
	S36.989,26.969,35.963,27.77z M9.023,22.584c-0.38,0.533-0.591,1.177-0.591,1.849c0,0.674,0.211,1.318,0.591,1.852V22.584z
	 M10.057,21.235v6.4c0,0.693,0.562,1.256,1.25,1.256c0.69,0,1.18-0.562,1.18-1.256v-6.4c0-0.693-0.489-1.256-1.18-1.256
	C10.618,19.979,10.057,20.542,10.057,21.235z M34.943,21.235c0-0.693-0.562-1.256-1.25-1.256c-0.69,0-1.18,0.562-1.18,1.256v6.4
	c0,0.693,0.489,1.256,1.18,1.256c0.688,0,1.25-0.562,1.25-1.256V21.235z M35.977,26.285c0.379-0.533,0.591-1.178,0.591-1.852
	c0-0.672-0.212-1.316-0.591-1.849V26.285z"/>
<path fill="none" stroke="#0684BD" stroke-miterlimit="10" d="M35.156,28.534c0,0-3.983,6.858-11.842,6.858"/>
<path fill="#0684BD" stroke="#0684BD" stroke-miterlimit="10" d="M24.643,35.387c0,0.367-0.322,0.666-0.72,0.666h-1.106
	c-0.397,0-0.72-0.299-0.72-0.666s0.322-0.666,0.72-0.666h1.106C24.32,34.721,24.643,35.02,24.643,35.387z"/>
</svg>
