<?xml version="1.0" encoding="utf-8"?>
<!-- Generator: Adobe Illustrator 16.0.0, SVG Export Plug-In . SVG Version: 6.00 Build 0)  -->
<!DOCTYPE svg PUBLIC "-//W3C//DTD SVG 1.1//EN" "http://www.w3.org/Graphics/SVG/1.1/DTD/svg11.dtd">
<svg version="1.1" id="Layer_1" xmlns="http://www.w3.org/2000/svg" xmlns:xlink="http://www.w3.org/1999/xlink" x="0px" y="0px"
	 width="45px" height="45px" viewBox="0 0 45 45" enable-background="new 0 0 45 45" xml:space="preserve">
<g>
	<path fill="none" stroke="#0684BD" stroke-miterlimit="10" d="M22.5,0.5c12.15,0,22,9.851,22,22c0,12.15-9.852,22-22,22
		c-12.151,0-22.001-9.85-22.001-22C0.499,10.351,10.35,0.5,22.5,0.5z"/>
</g>
<path fill-rule="evenodd" clip-rule="evenodd" fill="#0684BD" d="M32.104,15.204l-8.045,4.67l1.352-5.228l-0.98,0.141l-1.595,6.011
	c0,0,0.006,0.078,0.053,0.119c0.015,0.016,0.032,0.027,0.032,0.027l6.01,1.596l0.584-0.769l-5.119-1.411l8.004-4.647
	c0.047-0.028,0.064-0.089,0.035-0.137L32.24,15.24C32.211,15.191,32.15,15.176,32.104,15.204z"/>
<path fill="none" stroke="#0684BD" stroke-miterlimit="10" d="M15.764,24.922c3.66,7.571,8.111,9.926,10.162,9.008
	c0.585-0.264,1.785-1.239,2.1-1.693c0.326-0.463,0.278-1.068-0.061-1.514c-1.037-1.35-2.009-2.762-2.908-4.207
	c-0.292-0.475-0.83-0.647-1.349-0.455c-0.607,0.23-1.108,0.776-1.741,1.116c-0.512,0.271-1.938-0.183-3.607-3.542
	c-1.597-3.396-1.075-4.818-0.547-5.06c0.651-0.302,1.383-0.364,1.938-0.714c0.469-0.295,0.66-0.825,0.472-1.355
	c-0.574-1.606-1.08-3.248-1.499-4.907c-0.14-0.546-0.579-0.955-1.14-0.98c-0.549-0.023-2.044,0.339-2.607,0.642
	C13,12.344,12.106,17.349,15.764,24.922z"/>
</svg>
