<?xml version="1.0" encoding="utf-8"?>
<!-- Generator: Adobe Illustrator 16.0.0, SVG Export Plug-In . SVG Version: 6.00 Build 0)  -->
<!DOCTYPE svg PUBLIC "-//W3C//DTD SVG 1.1//EN" "http://www.w3.org/Graphics/SVG/1.1/DTD/svg11.dtd">
<svg version="1.1" id="Layer_1" xmlns="http://www.w3.org/2000/svg" xmlns:xlink="http://www.w3.org/1999/xlink" x="0px" y="0px"
	 width="45px" height="45px" viewBox="0 0 45 45" enable-background="new 0 0 45 45" xml:space="preserve">
<circle fill="none" stroke="#0684BD" stroke-miterlimit="10" cx="22.5" cy="22.5" r="22"/>
<path fill-rule="evenodd" clip-rule="evenodd" fill="#0684BD" d="M29.368,35.565c-0.109,0.124-0.263,0.188-0.417,0.188
	c-0.131,0-0.263-0.046-0.368-0.14c-0.23-0.204-0.253-0.555-0.049-0.786c4.835-5.477,6.31-11.282,4.385-17.253
	c-1.44-4.468-4.329-7.347-4.358-7.375c-0.219-0.216-0.222-0.568-0.007-0.787c0.217-0.22,0.569-0.223,0.788-0.008
	C29.466,9.528,41.571,21.743,29.368,35.565z M26.818,31.845c-0.11,0.125-0.265,0.188-0.419,0.188c-0.131,0-0.262-0.045-0.367-0.138
	c-0.231-0.203-0.254-0.555-0.051-0.786c7.804-8.876,0.338-16.864,0.017-17.201c-0.213-0.222-0.205-0.574,0.016-0.786
	c0.223-0.214,0.574-0.206,0.787,0.015C26.887,13.226,35.306,22.19,26.818,31.845z M24.394,28.02c-0.11,0.14-0.273,0.213-0.438,0.213
	c-0.12,0-0.242-0.038-0.344-0.119c-0.242-0.189-0.284-0.54-0.094-0.782c4.086-5.201,0.2-9.446,0.033-9.624
	c-0.211-0.225-0.2-0.576,0.022-0.788c0.224-0.21,0.575-0.201,0.786,0.021C24.407,16.991,29.084,22.05,24.394,28.02z M19.761,31.631
	c-0.438,0-0.88-0.218-1.349-0.669c-1.215-1.167-3.902-4.01-4.594-4.722h-3.073c-0.309,0-0.558-0.249-0.558-0.558v-6.384
	c0-0.308,0.249-0.557,0.558-0.557h3.175c1.512-1.613,4.69-4.911,5.312-5.209c0.041-0.021,0.093-0.019,0.131-0.044
	c0.758-0.514,1.825-0.562,1.825,1.118v15.576c0,0.045-0.017,0.089-0.017,0.135C21.171,31.165,20.614,31.631,19.761,31.631z
	 M13.688,19.764h-2.506v5.476h2.506V19.764z M19.97,15.44c0-0.537-0.04-0.677-0.041-0.678c0,0-0.179-0.111-0.363-0.084
	c-0.502,0.359-2.748,2.68-4.869,4.944v5.968c0.747,0.771,3.102,3.32,4.28,4.455c0.275,0.265,0.583,0.358,0.682,0.358
	c0.12,0,0.254-0.247,0.312-0.417V15.44z"/>
</svg>
