<?xml version="1.0" encoding="utf-8"?>
<!-- Generator: Adobe Illustrator 16.0.0, SVG Export Plug-In . SVG Version: 6.00 Build 0)  -->
<!DOCTYPE svg PUBLIC "-//W3C//DTD SVG 1.1//EN" "http://www.w3.org/Graphics/SVG/1.1/DTD/svg11.dtd">
<svg version="1.1" id="Layer_1" xmlns="http://www.w3.org/2000/svg" xmlns:xlink="http://www.w3.org/1999/xlink" x="0px" y="0px"
	 width="45px" height="45px" viewBox="0 0 45 45" enable-background="new 0 0 45 45" xml:space="preserve">
<circle fill="none" stroke="#0684BD" stroke-miterlimit="10" cx="22.5" cy="22.5" r="22"/>
<path fill="none" stroke="#0684BD" stroke-miterlimit="10" d="M14.883,24.789c3.346,7.721,7.732,10.277,9.847,9.459
	c0.604-0.234,1.861-1.152,2.199-1.59c0.352-0.445,0.332-1.051,0.012-1.51c-0.986-1.395-1.9-2.85-2.744-4.332
	c-0.273-0.488-0.809-0.686-1.341-0.518c-0.624,0.201-1.155,0.721-1.811,1.029c-0.529,0.248-1.951-0.273-3.48-3.701
	c-1.455-3.462-0.861-4.854-0.318-5.07c0.673-0.271,1.415-0.298,1.993-0.621c0.487-0.272,0.705-0.792,0.539-1.329
	c-0.503-1.629-0.94-3.289-1.286-4.963c-0.115-0.552-0.542-0.979-1.106-1.032c-0.555-0.047-2.081,0.243-2.664,0.519
	C12.676,12.118,11.542,17.065,14.883,24.789z"/>
<g>
	<g>
		<path fill="#0684BD" d="M23.038,17.436c-0.296-0.123-0.638,0.017-0.762,0.312c-0.123,0.297,0.017,0.639,0.313,0.764
			c1.016,0.424,1.807,1.221,2.225,2.242c0.401,0.98,0.413,2.064,0.032,3.051c-0.114,0.301,0.035,0.638,0.337,0.753
			c0.145,0.057,0.297,0.05,0.429-0.004c0.143-0.059,0.263-0.175,0.321-0.331c0.487-1.268,0.472-2.656-0.042-3.911
			C25.355,19.003,24.342,17.982,23.038,17.436z M24.158,14.821c-0.306-0.104-0.635,0.059-0.739,0.362
			c-0.104,0.305,0.06,0.635,0.364,0.74c1.767,0.601,3.186,1.936,3.892,3.659c0.698,1.703,0.634,3.627-0.176,5.283
			c-0.143,0.287-0.022,0.637,0.267,0.776c0.154,0.078,0.328,0.078,0.476,0.018c0.128-0.053,0.236-0.149,0.302-0.283
			c0.956-1.952,1.034-4.224,0.21-6.235C27.92,17.106,26.244,15.531,24.158,14.821z M31.427,18.045c-1.1-2.685-3.327-4.7-6.113-5.527
			c-0.309-0.091-0.634,0.084-0.724,0.393c-0.093,0.308,0.084,0.633,0.393,0.723c2.445,0.726,4.402,2.496,5.367,4.853
			c0.985,2.405,0.809,5.081-0.485,7.338c-0.16,0.28-0.063,0.634,0.214,0.794c0.165,0.092,0.351,0.1,0.512,0.033
			c0.115-0.047,0.217-0.132,0.283-0.248C32.348,23.831,32.55,20.786,31.427,18.045z"/>
	</g>
</g>
</svg>
