<?xml version="1.0" encoding="utf-8"?>
<!-- Generator: Adobe Illustrator 16.0.0, SVG Export Plug-In . SVG Version: 6.00 Build 0)  -->
<!DOCTYPE svg PUBLIC "-//W3C//DTD SVG 1.1//EN" "http://www.w3.org/Graphics/SVG/1.1/DTD/svg11.dtd">
<svg version="1.1" id="Layer_1" xmlns="http://www.w3.org/2000/svg" xmlns:xlink="http://www.w3.org/1999/xlink" x="0px" y="0px"
	 width="45px" height="45px" viewBox="0 0 45 45" enable-background="new 0 0 45 45" xml:space="preserve">
<g>
	<path fill="none" stroke="#0684BD" stroke-miterlimit="10" d="M22.5,0.5c12.15,0,22,9.851,22,22c0,12.15-9.852,22-22,22
		c-12.151,0-22.001-9.85-22.001-22C0.499,10.351,10.35,0.5,22.5,0.5z"/>
</g>
<g>
	<path fill="#0684BD" d="M16.229,24.471c0-0.326,0.137-0.512,0.462-0.512h10.744c0.324,0,0.589,0.186,0.589,0.512
		c0,0.323-0.265,0.493-0.589,0.493H16.691C16.365,24.964,16.229,24.794,16.229,24.471z"/>
	<path fill="#0684BD" d="M16.229,28.471c0-0.324,0.137-0.511,0.462-0.511h10.744c0.324,0,0.589,0.187,0.589,0.511
		s-0.265,0.494-0.589,0.494H16.691C16.365,28.965,16.229,28.795,16.229,28.471z"/>
	<path fill="#0684BD" d="M31.52,25.045v8.98H13.487V11.002h11.966v5.355c0,0.323,0.147,0.64,0.475,0.64h5.594v2.586h1.008v-3.226
		c0-0.162-0.064-0.31-0.172-0.417l-6.014-5.8c-0.115-0.116-0.266-0.156-0.416-0.156H13.03c-0.326,0-0.559,0.104-0.559,0.43v24.012
		c0,0.325,0.232,0.59,0.559,0.59h18.912c0.324,0,0.588-0.265,0.588-0.59V19.583h-1.01V25.045z M26.468,11.938l4.233,4.048h-4.233
		V11.938z"/>
	<path fill="#0684BD" d="M24.275,20.034h-7.584c-0.325,0-0.462,0.187-0.462,0.511s0.137,0.495,0.462,0.495h8.717L24.275,20.034z"/>
</g>
</svg>
