<?xml version="1.0" encoding="utf-8"?>
<!-- Generator: Adobe Illustrator 16.0.0, SVG Export Plug-In . SVG Version: 6.00 Build 0)  -->
<!DOCTYPE svg PUBLIC "-//W3C//DTD SVG 1.1//EN" "http://www.w3.org/Graphics/SVG/1.1/DTD/svg11.dtd">
<svg version="1.1" id="Layer_1" xmlns="http://www.w3.org/2000/svg" xmlns:xlink="http://www.w3.org/1999/xlink" x="0px" y="0px"
	 width="45px" height="45px" viewBox="0 0 45 45" enable-background="new 0 0 45 45" xml:space="preserve">
<g>
	<path fill="none" stroke="#0684BD" stroke-miterlimit="10" d="M22.5,0.5c12.15,0,22,9.851,22,22c0,12.15-9.852,22-22,22
		c-12.151,0-22.001-9.85-22.001-22C0.499,10.351,10.35,0.5,22.5,0.5z"/>
</g>
<g>
	<g>
		<path fill="#0684BD" d="M22.375,29.318c2.13,0,4.49-1.762,4.49-3.928V12.342c0-2.165-2.359-3.927-4.49-3.927
			c-2.132,0-4.241,1.762-4.241,3.927v13.049C18.134,27.557,20.244,29.318,22.375,29.318z M18.993,12.342
			c0-1.705,1.741-3.094,3.42-3.094s3.67,1.389,3.67,3.094v13.049c0,1.706-1.991,3.094-3.67,3.094s-3.42-1.388-3.42-3.094V12.342z
			 M28.049,17.721v7.839c0,2.829-2.89,5.131-5.673,5.131c-2.784,0-5.425-2.302-5.425-5.131v-7.839H16.13v7.839
			c0,3.149,2.759,5.729,5.835,5.944v4.247h-3.42v0.834h7.911v-0.834h-3.669v-4.247c3.095-0.214,6.084-2.794,6.084-5.944v-7.839
			H28.049z"/>
	</g>
</g>
</svg>
