<?xml version="1.0" encoding="utf-8"?>
<!-- Generator: Adobe Illustrator 16.0.0, SVG Export Plug-In . SVG Version: 6.00 Build 0)  -->
<!DOCTYPE svg PUBLIC "-//W3C//DTD SVG 1.1//EN" "http://www.w3.org/Graphics/SVG/1.1/DTD/svg11.dtd">
<svg version="1.1" id="Layer_1" xmlns="http://www.w3.org/2000/svg" xmlns:xlink="http://www.w3.org/1999/xlink" x="0px" y="0px"
	 width="45px" height="45px" viewBox="0 0 45 45" enable-background="new 0 0 45 45" xml:space="preserve">
<g>
	<path fill="none" stroke="#0684BD" stroke-miterlimit="10" d="M22.5,0.5c12.15,0,22,9.851,22,22c0,12.15-9.852,22-22,22
		c-12.151,0-22.001-9.85-22.001-22C0.499,10.351,10.35,0.5,22.5,0.5z"/>
</g>
<path fill="none" stroke="#0684BD" stroke-miterlimit="10" d="M14.512,25.055c3.659,7.57,8.111,9.926,10.162,9.008
	c0.586-0.264,1.785-1.24,2.1-1.693c0.326-0.463,0.279-1.068-0.061-1.514c-1.037-1.35-2.008-2.762-2.908-4.207
	c-0.291-0.475-0.83-0.648-1.348-0.455c-0.607,0.23-1.109,0.775-1.742,1.115c-0.512,0.271-1.938-0.182-3.607-3.541
	c-1.597-3.397-1.075-4.819-0.548-5.06c0.652-0.303,1.384-0.364,1.938-0.714c0.469-0.296,0.66-0.825,0.472-1.355
	c-0.574-1.606-1.08-3.247-1.499-4.907c-0.14-0.547-0.579-0.955-1.14-0.98c-0.549-0.023-2.044,0.34-2.607,0.643
	C11.749,12.477,10.855,17.481,14.512,25.055z"/>
<path fill-rule="evenodd" clip-rule="evenodd" fill="#0684BD" d="M22.56,21.104h9.302l-3.794,3.843l0.919,0.371l4.397-4.397
	c0,0,0.034-0.07,0.014-0.131c-0.005-0.021-0.014-0.039-0.014-0.039l-4.397-4.396l-0.89,0.371l3.719,3.791H22.56
	c-0.056,0-0.101,0.045-0.101,0.1v0.389C22.459,21.06,22.504,21.104,22.56,21.104z"/>
</svg>
