<?xml version="1.0" encoding="utf-8"?>
<!-- Generator: Adobe Illustrator 16.0.0, SVG Export Plug-In . SVG Version: 6.00 Build 0)  -->
<!DOCTYPE svg PUBLIC "-//W3C//DTD SVG 1.1//EN" "http://www.w3.org/Graphics/SVG/1.1/DTD/svg11.dtd">
<svg version="1.1" id="Layer_1" xmlns="http://www.w3.org/2000/svg" xmlns:xlink="http://www.w3.org/1999/xlink" x="0px" y="0px"
	 width="32px" height="18px" viewBox="0 0 32 18" enable-background="new 0 0 32 18" xml:space="preserve">
<path fill-rule="evenodd" clip-rule="evenodd" fill="#DADADA" d="M26.438,4.021c2.75,0,4.979,2.229,4.979,4.979
	s-2.229,4.979-4.979,4.979S21.458,11.75,21.458,9S23.688,4.021,26.438,4.021z"/>
<g>
	<g>
		<path fill="#B3B3B3" d="M8.542,13.012c1.598,0,3.368-1.322,3.368-2.946V2.968c0-1.624-1.77-2.945-3.368-2.945
			c-1.599,0-3.133,1.321-3.133,2.945v7.098C5.409,11.689,6.944,13.012,8.542,13.012z M6.405,2.968c0-1.279,0.87-1.958,2.128-1.958
			c1.259,0,2.371,0.646,2.371,1.927v7.098c0,1.279-1.111,1.99-2.371,1.99c-1.259,0-2.128-0.679-2.128-1.959V2.968z M12.393,5.483
			v4.523c0,2.121-1.676,3.501-3.764,3.501c-2.088,0-3.722-1.38-3.722-3.501V5.483H3.916v4.523c0,2.302,1.993,4.181,4.231,4.425
			v2.573H5.929v0.973h5.962v-0.973h-2.81v-2.57c2.258-0.229,4.332-2.115,4.332-4.428V5.483H12.393z"/>
	</g>
</g>
</svg>
