<?xml version="1.0" encoding="utf-8"?>
<!-- Generator: Adobe Illustrator 16.0.0, SVG Export Plug-In . SVG Version: 6.00 Build 0)  -->
<!DOCTYPE svg PUBLIC "-//W3C//DTD SVG 1.1//EN" "http://www.w3.org/Graphics/SVG/1.1/DTD/svg11.dtd">
<svg version="1.1" id="Layer_1" xmlns="http://www.w3.org/2000/svg" xmlns:xlink="http://www.w3.org/1999/xlink" x="0px" y="0px"
	 width="32px" height="18px" viewBox="0 0 32 18" enable-background="new 0 0 32 18" xml:space="preserve">
<path fill-rule="evenodd" clip-rule="evenodd" fill="#3DD900" d="M26.438,4.021c2.75,0,4.979,2.229,4.979,4.979
	s-2.229,4.979-4.979,4.979S21.458,11.75,21.458,9S23.688,4.021,26.438,4.021z"/>
<g>
	<path fill="none" stroke="#B3B3B3" stroke-miterlimit="10" d="M2.514,10.872c1.697,4.457,4.043,5.989,5.208,5.559
		c0.333-0.124,1.033-0.625,1.224-0.868c0.197-0.249,0.197-0.594,0.029-0.861c-0.514-0.812-0.989-1.656-1.423-2.516
		c-0.141-0.282-0.429-0.404-0.722-0.317c-0.343,0.104-0.641,0.392-1.002,0.557c-0.293,0.132-1.057-0.188-1.835-2.169
		c-0.736-1.998-0.39-2.781-0.091-2.895c0.37-0.144,0.775-0.146,1.095-0.32c0.269-0.147,0.397-0.439,0.315-0.748
		c-0.248-0.938-0.459-1.891-0.62-2.851C4.638,3.126,4.413,2.875,4.107,2.836C3.806,2.799,2.97,2.938,2.648,3.086
		C1.518,3.613,0.82,6.414,2.514,10.872z"/>
	<path fill="none" stroke="#B3B3B3" stroke-linecap="round" stroke-miterlimit="10" d="M7.971,4.036
		c2.139,1.238,3.87,3.663,3.252,7.532"/>
	<path fill="none" stroke="#B3B3B3" stroke-linecap="round" stroke-miterlimit="10" d="M8.946,1.5
		c3.033,1.755,5.484,5.192,4.611,10.675"/>
	<path fill="none" stroke="#B3B3B3" stroke-linecap="round" stroke-miterlimit="10" d="M6.903,6.152
		c1.326,0.768,2.398,2.27,2.015,4.667"/>
</g>
</svg>
