<?xml version="1.0" encoding="utf-8"?>
<!-- Generator: Adobe Illustrator 16.0.0, SVG Export Plug-In . SVG Version: 6.00 Build 0)  -->
<!DOCTYPE svg PUBLIC "-//W3C//DTD SVG 1.1//EN" "http://www.w3.org/Graphics/SVG/1.1/DTD/svg11.dtd">
<svg version="1.1" id="Layer_1" xmlns="http://www.w3.org/2000/svg" xmlns:xlink="http://www.w3.org/1999/xlink" x="0px" y="0px"
	 width="32px" height="18px" viewBox="0 0 32 18" enable-background="new 0 0 32 18" xml:space="preserve">
<path fill="#3DD900" d="M26.438,4.021c2.75,0,4.979,2.229,4.979,4.979s-2.229,4.979-4.979,4.979S21.458,11.75,21.458,9
	S23.688,4.021,26.438,4.021z"/>
<g>
	<g>
		<g>
			<path fill="#B3B3B3" d="M11.67,0.918c-0.371,0.067-0.604,0.625-0.297,1.102c2.047,1.615,3.361,4.119,3.361,6.929
				c0,2.811-1.314,5.314-3.364,6.93c-0.354,0.66-0.196,1.199,0.231,1.203c2.597-1.828,4.072-4.709,4.072-8.132
				C15.673,5.616,14.177,2.874,11.67,0.918z M8.831,3.88C8.184,3.986,8.028,4.422,8.217,5.04c1.31,1.033,2.039,2.23,2.039,4.028
				c0,1.799-0.688,3.127-1.998,4.161c-0.237,0.597-0.234,0.896,0.348,1.17c1.541-1.321,2.626-3.139,2.626-5.328
				C11.231,6.936,10.305,5.2,8.831,3.88z"/>
		</g>
	</g>
	<g>
		<g>
			<path fill="none" stroke="#B3B3B3" stroke-miterlimit="10" d="M4.093,12.598H3.317c-0.884,0-1.6,0.715-1.6,1.601v0.768
				c0,0.886,0.716,1.601,1.6,1.601h0.776c0.884,0,1.6-0.715,1.6-1.601v-0.768C5.693,13.312,4.977,12.598,4.093,12.598z M4.093,7.097
				H3.317c-0.884,0-1.6,0.716-1.6,1.6v0.768c0,0.885,0.716,1.6,1.6,1.6h0.776c0.884,0,1.6-0.715,1.6-1.6V8.696
				C5.693,7.812,4.977,7.097,4.093,7.097z M3.104,5.563H3.88c0.884,0,1.6-0.716,1.6-1.6V3.196c0-0.884-0.716-1.6-1.6-1.6H3.104
				c-0.884,0-1.6,0.716-1.6,1.6v0.768C1.503,4.848,2.219,5.563,3.104,5.563z"/>
		</g>
	</g>
</g>
</svg>
