<?xml version="1.0" encoding="utf-8"?>
<!-- Generator: Adobe Illustrator 16.0.0, SVG Export Plug-In . SVG Version: 6.00 Build 0)  -->
<!DOCTYPE svg PUBLIC "-//W3C//DTD SVG 1.1//EN" "http://www.w3.org/Graphics/SVG/1.1/DTD/svg11.dtd">
<svg version="1.1" id="Layer_1" xmlns="http://www.w3.org/2000/svg" xmlns:xlink="http://www.w3.org/1999/xlink" x="0px" y="0px"
	 width="32px" height="18px" viewBox="0 0 32 18" enable-background="new 0 0 32 18" xml:space="preserve">
<path fill="none" stroke="#B3B3B3" stroke-miterlimit="10" d="M8.554,0.525c0,0-3.144,0.364-3.371,2.009
	C4.955,4.18,5.604,6.085,5.604,6.085s-0.653,0.79-0.591,1.124c0.062,0.335,1.438,2.793,1.905,3.206
	c0.047,0.867-0.024,2.203-0.024,2.203s-2.431,1.757-4.127,2.388c-1.697,0.63-2.438,2.184-2.207,2.473c0.409-0.074,15.92,0,15.92,0
	s-0.487-2.463-3.535-3.215c-1.831-0.565-2.596-1.41-2.596-1.41l-0.266-2.383c0,0,1.563-1.708,1.625-2.579
	c0.061-0.869,0.47-0.933,0.47-0.933l-0.465-0.928c0,0,0.501-1.83,0.457-2.508c-0.046-0.678-0.417-1.953-0.859-1.953
	c-0.443,0-1.417-0.447-1.478-0.718C9.769,0.582,8.554,0.525,8.554,0.525z"/>
<path fill="#3DD900" d="M26.438,4.021c2.75,0,4.979,2.229,4.979,4.979s-2.229,4.979-4.979,4.979S21.458,11.75,21.458,9
	S23.688,4.021,26.438,4.021z"/>
</svg>
