<?xml version="1.0" encoding="utf-8"?>
<!-- Generator: Adobe Illustrator 16.0.0, SVG Export Plug-In . SVG Version: 6.00 Build 0)  -->
<!DOCTYPE svg PUBLIC "-//W3C//DTD SVG 1.1//EN" "http://www.w3.org/Graphics/SVG/1.1/DTD/svg11.dtd">
<svg version="1.1" id="Layer_1" xmlns="http://www.w3.org/2000/svg" xmlns:xlink="http://www.w3.org/1999/xlink" x="0px" y="0px"
	 width="45px" height="45px" viewBox="0 0 45 45" enable-background="new 0 0 45 45" xml:space="preserve">
<g>
	<path fill="none" stroke="#0684BD" stroke-miterlimit="10" d="M22.5,0.5c12.15,0,22,9.851,22,22c0,12.15-9.852,22-22,22
		c-12.151,0-22.001-9.85-22.001-22C0.499,10.351,10.35,0.5,22.5,0.5z"/>
</g>
<g>
	<path fill="#0684BD" d="M15.553,24.471c0-0.326,0.137-0.512,0.462-0.512h10.744c0.324,0,0.588,0.186,0.588,0.512
		c0,0.323-0.264,0.493-0.588,0.493H16.015C15.689,24.964,15.553,24.794,15.553,24.471z"/>
	<path fill="#0684BD" d="M15.553,28.471c0-0.325,0.137-0.511,0.462-0.511h10.744c0.324,0,0.588,0.186,0.588,0.511
		c0,0.324-0.264,0.494-0.588,0.494H16.015C15.689,28.965,15.553,28.795,15.553,28.471z"/>
	<path fill-rule="evenodd" clip-rule="evenodd" fill="#0684BD" d="M30.844,25.045v8.98H12.811V11.002h11.967v5.355
		c0,0.323,0.147,0.64,0.474,0.64h5.593v2.586h1.009v-3.226c0-0.162-0.065-0.309-0.173-0.417l-6.013-5.8
		c-0.115-0.116-0.266-0.156-0.416-0.156H12.354c-0.326,0-0.559,0.104-0.559,0.43v24.012c0,0.325,0.232,0.59,0.559,0.59h18.912
		c0.324,0,0.587-0.265,0.587-0.59v-9.381H30.844z M25.792,11.938l4.234,4.048h-4.234V11.938z"/>
	<path fill="#0684BD" d="M23.599,20.034h-7.584c-0.325,0-0.462,0.186-0.462,0.511c0,0.324,0.137,0.495,0.462,0.495h8.718
		L23.599,20.034z"/>
</g>
<g>
	<path fill="#0684BD" d="M31.027,23.5l-3.681-3.681l0.683-0.683l2.998,3.01l5.513-5.577l0.709,0.709L31.027,23.5z"/>
</g>
</svg>
