<?xml version="1.0" encoding="utf-8"?>
<!-- Generator: Adobe Illustrator 16.0.0, SVG Export Plug-In . SVG Version: 6.00 Build 0)  -->
<!DOCTYPE svg PUBLIC "-//W3C//DTD SVG 1.1//EN" "http://www.w3.org/Graphics/SVG/1.1/DTD/svg11.dtd">
<svg version="1.1" id="Layer_1" xmlns="http://www.w3.org/2000/svg" xmlns:xlink="http://www.w3.org/1999/xlink" x="0px" y="0px"
	 width="45px" height="45px" viewBox="0 0 45 45" enable-background="new 0 0 45 45" xml:space="preserve">
<circle fill="none" stroke="#0684BD" stroke-miterlimit="10" cx="22.5" cy="22.5" r="22"/>
<g>
	<g>
		<path fill="#0684BD" d="M35.172,37.637c0.45-2.573,0.747-5.583,0.729-8.898c3.698-1.896,6.94-4.875,8.654-8.177
			c-0.02-0.501-0.149-0.906-0.451-1.578c-1.629,3.385-4.648,6.513-8.217,8.458c-0.057-1.768-0.203-3.611-0.479-5.526
			c-0.295-2.041-0.733-3.877-1.247-5.525c2.812-1.906,4.804-4.777,5.604-7.417C39.578,8.7,39.354,8.539,38.81,8.128
			c-0.784,2.687-2.438,5.553-4.938,7.386c-1.406-4.105-3.255-6.875-4.441-8.289c0.298-0.189,0.571-0.4,0.814-0.634
			c1.145-1.102,1.763-2.542,1.657-3.845c-0.523-0.125-1.061-0.195-1.332-0.494c0.442,1.303,0.262,2.62-0.717,3.562
			c-1.396,1.344-3.694,1.803-6.241,1.627c0-0.015,0-0.027,0-0.042h-0.495c-3.806-0.381-8.066-2.127-10.7-4.519
			c-0.42,0.25-0.48,0.362-1.02,0.693c1.264,1.476,3.231,2.688,5.449,3.541c-1.975,3.394-3.622,6.423-4.758,9.359
			c-3.149-1.289-5.994-3.187-8.25-5.681c-0.281,0.008-0.493,0.443-0.493,0.443c2.234,2.798,5.121,4.88,8.355,6.266
			c-0.41,1.18-0.734,2.352-0.956,3.533c-0.4,2.138-0.648,4.646-0.678,7.393c-3.455-1.216-6.735-3.038-9.558-5.602
			c0.023,0.371-0.082,0.802-0.062,1.169c2.842,2.624,6.146,4.485,9.625,5.719c0.037,2.36,0.254,4.881,0.688,7.506
			c-2.507-0.93-4.883-2.115-6.954-3.568C4.029,34.443,3.977,34.646,4.221,35c2.026,1.374,4.324,2.503,6.738,3.403
			c0.213,1.129,0.457,2.27,0.759,3.427c0.205,0.215,0.752,0.232,1.242,0.473c-0.318-1.174-0.577-2.334-0.806-3.482
			c3.327,1.118,6.818,1.804,10.112,2.059c0,1.307,0,2.578,0,3.758c0.668,0.156,0.921,0.143,1.171-0.01c0-1.155,0-2.398,0-3.676
			c3.507,0.164,6.726-0.162,9.16-0.992c0.522-0.178,1.015-0.387,1.512-0.59c-0.163,0.808-0.333,1.584-0.513,2.289
			c0.614-0.088,0.621-0.291,0.79-0.357c0.179-0.693,0.35-1.457,0.513-2.253c2.059-0.922,3.886-2.056,5.459-3.339
			c0.67-0.764,1.405-2.432,1.941-3.537C40.414,34.318,38.021,36.242,35.172,37.637z M34.58,22.42
			c0.272,1.888,0.418,3.707,0.477,5.452c-0.701,0.337-1.414,0.643-2.146,0.878c-2.801,0.903-6.051,1.475-9.474,1.605
			c0-0.832,0-1.641,0-2.386c0-3.088,0.029-5.824,0.064-8.5c2.615-0.164,5.246-0.695,7.787-1.604c0.721-0.258,1.394-0.6,2.042-0.974
			C33.846,18.54,34.285,20.378,34.58,22.42z M28.561,7.681c1.187,1.4,3.068,4.195,4.493,8.366c-0.536,0.321-1.096,0.611-1.701,0.827
			c-2.537,0.908-5.188,1.405-7.837,1.531c0.042-3.17,0.086-6.33,0.094-9.915C25.46,8.539,27.188,8.285,28.561,7.681z M17.988,7.514
			c1.451,0.462,2.97,0.77,4.45,0.904c-0.007,3.628-0.051,6.816-0.094,10.019c-3.198,0.016-6.363-0.519-9.295-1.581
			C14.229,13.92,15.989,10.92,17.988,7.514z M11.802,20.963c0.193-1.033,0.49-2.051,0.851-3.071c3.027,1.143,6.325,1.68,9.677,1.613
			c-0.034,2.665-0.063,5.391-0.063,8.465c0,0.75,0,1.565,0,2.405c-3.656,0.03-7.463-0.458-11.118-1.601
			C11.145,25.858,11.383,23.199,11.802,20.963z M11.942,37.627c-0.461-2.637-0.713-5.181-0.778-7.564
			c3.65,1.147,7.451,1.634,11.103,1.596c0,2.546,0,5.333,0,8.017C18.903,39.439,15.333,38.759,11.942,37.627z M32.615,38.703
			c-2.437,0.83-5.662,1.173-9.178,1.032c0-2.711,0-5.53,0-8.102c3.377-0.138,6.59-0.706,9.372-1.603
			c0.765-0.246,1.521-0.549,2.263-0.891c0.026,3.3-0.263,6.299-0.705,8.87C33.799,38.262,33.219,38.497,32.615,38.703z"/>
	</g>
</g>
</svg>
