<?xml version="1.0" encoding="utf-8"?>
<!-- Generator: Adobe Illustrator 16.0.0, SVG Export Plug-In . SVG Version: 6.00 Build 0)  -->
<!DOCTYPE svg PUBLIC "-//W3C//DTD SVG 1.1//EN" "http://www.w3.org/Graphics/SVG/1.1/DTD/svg11.dtd">
<svg version="1.1" id="Layer_1" xmlns="http://www.w3.org/2000/svg" xmlns:xlink="http://www.w3.org/1999/xlink" x="0px" y="0px"
	 width="45px" height="45px" viewBox="0 0 45 45" enable-background="new 0 0 45 45" xml:space="preserve">
<g>
	<path fill="none" stroke="#0684BD" stroke-miterlimit="10" d="M22.5,0.5c12.15,0,22,9.851,22,22c0,12.15-9.852,22-22,22
		c-12.151,0-22.001-9.85-22.001-22C0.499,10.351,10.35,0.5,22.5,0.5z"/>
</g>
<g>
	<g>
		<path fill-rule="evenodd" clip-rule="evenodd" fill="#0684BD" d="M15.811,24.48h13.301c0.273,0,0.495-0.222,0.495-0.495
			s-0.222-0.495-0.495-0.495H15.811c-0.273,0-0.495,0.222-0.495,0.495S15.537,24.48,15.811,24.48z M34.23,13.5H10.777
			c-0.552,0-0.999,0.448-0.999,1v3.46H9.77v3.532h0.009V30.5c0,0.553,0.447,1,0.999,1H34.23c0.553,0,1-0.447,1-1v-16
			C35.23,13.948,34.783,13.5,34.23,13.5z M34.23,29.5c0,0.553-0.447,1-1,1H11.778c-0.553,0-1.001-0.447-1.001-1v-8.008H34.23V29.5z
			 M34.23,17.96H10.777V15.5c0-0.553,0.448-1,1.001-1H33.23c0.553,0,1,0.447,1,1V17.96z M26.611,25.49h-8.301
			c-0.273,0-0.495,0.222-0.495,0.495s0.222,0.495,0.495,0.495h8.301c0.273,0,0.495-0.222,0.495-0.495S26.885,25.49,26.611,25.49z"/>
	</g>
</g>
</svg>
