<?xml version="1.0" encoding="utf-8"?>
<!-- Generator: Adobe Illustrator 16.0.0, SVG Export Plug-In . SVG Version: 6.00 Build 0)  -->
<!DOCTYPE svg PUBLIC "-//W3C//DTD SVG 1.1//EN" "http://www.w3.org/Graphics/SVG/1.1/DTD/svg11.dtd">
<svg version="1.1" id="Layer_1" xmlns="http://www.w3.org/2000/svg" xmlns:xlink="http://www.w3.org/1999/xlink" x="0px" y="0px"
	 width="32px" height="32px" viewBox="0 0 32 32" enable-background="new 0 0 32 32" xml:space="preserve">
<g>
	<g>
		<path fill="#B3B3B3" d="M16.106,13.967c-2.071,0-3.75,1.679-3.75,3.75s1.679,3.75,3.75,3.75s3.75-1.679,3.75-3.75
			S18.178,13.967,16.106,13.967z M16.106,20.834c-1.721,0-3.116-1.396-3.116-3.117s1.396-3.117,3.116-3.117
			c1.722,0,3.117,1.396,3.117,3.117S17.828,20.834,16.106,20.834z M30.016,10.27c-1.919-2.271-6.652-3.681-12.659-3.773
			l-2.219-0.034C9.132,6.37,4.291,7.633,2.189,9.841L2.103,9.939c-1.305,1.519-0.96,4.71-0.091,6.121
			c0.554,0.898,1.162,0.887,1.431,0.811c1.236-0.204,2.877-0.632,4.195-1.09c-1.316,1.602-3.311,5.044-3.311,5.676v2.586
			c0,0.828,0.672,1.5,1.5,1.5H25.9c0.828,0,1.5-0.672,1.5-1.5v-2.586c0-0.6-1.926-3.736-3.303-5.422
			c1.275,0.496,2.867,0.971,4.058,1.205c0.268,0.084,0.801,0.126,1.369-0.536C30.678,15.361,31.371,11.872,30.016,10.27z
			 M26.4,21.457v1.586c0,0.828-0.672,1.5-1.5,1.5H6.826c-0.828,0-1.5-0.672-1.5-1.5v-1.586c0-0.828,3.435-6.5,4.264-6.5H9.499
			c0.042-0.027,0.102-0.057,0.137-0.084l0.063-0.049l0.043-0.067c0.341-0.536,0.273-1.096,0.215-1.589
			c-0.077-0.647-0.091-1.041,0.372-1.451c0.143-0.125,0.907-0.522,4.827-0.508l1.693,0.025c4.01,0.102,4.754,0.528,4.887,0.658
			c0.437,0.428,0.385,0.813,0.255,1.46c-0.098,0.491-0.21,1.048,0.087,1.594l0.006,0.011h-0.007
			c0.003,0.001,0.008,0.007,0.012,0.009l0.026,0.05l0.06,0.051c0.04,0.034,0.109,0.073,0.16,0.108
			C23.407,16.24,26.4,20.701,26.4,21.457z M28.871,16.143c-0.081,0.095-0.287,0.311-0.48,0.252c-2.197-0.437-4.868-1.428-5.578-1.95
			c-0.1-0.243-0.051-0.523,0.032-0.94c0.124-0.621,0.296-1.473-0.493-2.244c-0.349-0.343-1.315-0.809-5.652-0.903l-0.434-0.007
			v0.002l-0.343-0.005v-0.006l-0.439-0.004c-4.339-0.037-5.342,0.397-5.718,0.729c-0.858,0.75-0.751,1.577-0.673,2.227
			c0.05,0.419,0.075,0.7-0.043,0.939c-0.751,0.5-3.5,1.408-5.773,1.786c-0.16,0.045-0.375-0.194-0.521-0.432
			c-0.721-1.17-1.007-3.914,0.001-5.087l0.057-0.063c1.49-1.567,5.503-3.205,12.291-3.101L17.32,7.37
			c6.789,0.104,10.663,1.863,12.026,3.476C30.369,12.055,29.788,15.075,28.871,16.143z"/>
	</g>
</g>
</svg>
