<?xml version="1.0" encoding="utf-8"?>
<!-- Generator: Adobe Illustrator 16.0.0, SVG Export Plug-In . SVG Version: 6.00 Build 0)  -->
<!DOCTYPE svg PUBLIC "-//W3C//DTD SVG 1.1//EN" "http://www.w3.org/Graphics/SVG/1.1/DTD/svg11.dtd">
<svg version="1.1" id="Layer_1" xmlns="http://www.w3.org/2000/svg" xmlns:xlink="http://www.w3.org/1999/xlink" x="0px" y="0px"
	 width="18px" height="18px" viewBox="0 0 18 18" enable-background="new 0 0 18 18" xml:space="preserve">
<path fill-rule="evenodd" clip-rule="evenodd" fill="#B3B3B3" d="M15.001,4.335l-5.02,2.958l0.843-3.312l-0.612,0.089L9.217,7.878
	c0,0,0.004,0.05,0.034,0.077C9.26,7.964,9.27,7.971,9.27,7.971l3.753,1.011l0.363-0.486L10.19,7.601l4.995-2.944
	c0.03-0.018,0.041-0.056,0.021-0.086l-0.12-0.213C15.07,4.327,15.031,4.317,15.001,4.335z"/>
<path fill="none" stroke="#B3B3B3" stroke-miterlimit="10" d="M3.915,10.739c2.441,5.155,5.411,6.759,6.777,6.133
	c0.391-0.178,1.193-0.844,1.402-1.153c0.219-0.314,0.186-0.727-0.039-1.029c-0.693-0.919-1.342-1.88-1.941-2.864
	c-0.195-0.324-0.553-0.441-0.9-0.31c-0.404,0.156-0.74,0.527-1.162,0.759C7.711,12.46,6.76,12.15,5.646,9.862
	C4.581,7.551,4.927,6.58,5.281,6.416c0.435-0.203,0.924-0.248,1.293-0.485c0.312-0.199,0.439-0.56,0.315-0.921
	C6.505,3.915,6.167,2.797,5.887,1.667C5.795,1.296,5.501,1.018,5.129,1.001c-0.367-0.017-1.364,0.23-1.741,0.436
	C2.07,2.173,1.473,5.582,3.915,10.739z"/>
</svg>
