<?xml version="1.0" encoding="utf-8"?>
<!-- Generator: Adobe Illustrator 16.0.0, SVG Export Plug-In . SVG Version: 6.00 Build 0)  -->
<!DOCTYPE svg PUBLIC "-//W3C//DTD SVG 1.1//EN" "http://www.w3.org/Graphics/SVG/1.1/DTD/svg11.dtd">
<svg version="1.1" id="Layer_1" xmlns="http://www.w3.org/2000/svg" xmlns:xlink="http://www.w3.org/1999/xlink" x="0px" y="0px"
	 width="24px" height="24px" viewBox="0 0 24 24" enable-background="new 0 0 24 24" xml:space="preserve">
<g>
	<path fill="none" stroke="#0684BD" stroke-miterlimit="10" d="M4.982,14.197c3.212,7.41,7.422,9.864,9.452,9.079
		c0.579-0.226,1.786-1.106,2.111-1.526c0.337-0.428,0.317-1.009,0.011-1.449c-0.946-1.339-1.824-2.735-2.634-4.157
		c-0.263-0.469-0.776-0.659-1.287-0.498c-0.599,0.193-1.108,0.692-1.738,0.988c-0.508,0.237-1.873-0.262-3.34-3.553
		C6.16,9.758,6.73,8.422,7.251,8.215c0.646-0.26,1.358-0.286,1.913-0.596c0.467-0.261,0.676-0.76,0.517-1.275
		C9.199,4.78,8.779,3.187,8.447,1.58c-0.11-0.53-0.52-0.939-1.062-0.991C6.853,0.544,5.388,0.822,4.829,1.087
		C2.864,2.036,1.775,6.784,4.982,14.197z"/>
	<g>
		<g>
			<path fill="#0684BD" d="M12.81,7.14c-0.284-0.118-0.613,0.017-0.731,0.3c-0.118,0.285,0.016,0.613,0.3,0.733
				c0.976,0.407,1.735,1.171,2.136,2.151c0.384,0.941,0.396,1.981,0.029,2.929c-0.108,0.288,0.034,0.612,0.325,0.723
				c0.139,0.055,0.284,0.047,0.41-0.003c0.138-0.058,0.253-0.169,0.31-0.319c0.467-1.216,0.451-2.549-0.042-3.753
				C15.034,8.644,14.061,7.664,12.81,7.14z M13.885,4.63c-0.295-0.1-0.609,0.057-0.71,0.348c-0.1,0.292,0.058,0.609,0.35,0.71
				c1.696,0.577,3.058,1.858,3.735,3.512c0.67,1.635,0.608,3.481-0.169,5.071c-0.138,0.275-0.021,0.611,0.256,0.744
				c0.148,0.075,0.315,0.075,0.458,0.018c0.122-0.052,0.227-0.144,0.289-0.271c0.918-1.874,0.993-4.055,0.202-5.984
				C17.495,6.823,15.887,5.312,13.885,4.63z M20.861,7.724c-1.056-2.577-3.193-4.511-5.867-5.305
				c-0.297-0.087-0.609,0.081-0.695,0.377c-0.089,0.295,0.081,0.607,0.377,0.694c2.347,0.697,4.226,2.396,5.151,4.658
				c0.945,2.309,0.777,4.877-0.465,7.043c-0.154,0.27-0.062,0.608,0.205,0.763c0.158,0.088,0.337,0.096,0.491,0.031
				c0.11-0.045,0.209-0.127,0.271-0.237C21.745,13.277,21.938,10.355,20.861,7.724z"/>
		</g>
	</g>
</g>
</svg>
