<?xml version="1.0" encoding="utf-8"?>
<!-- Generator: Adobe Illustrator 16.0.0, SVG Export Plug-In . SVG Version: 6.00 Build 0)  -->
<!DOCTYPE svg PUBLIC "-//W3C//DTD SVG 1.1//EN" "http://www.w3.org/Graphics/SVG/1.1/DTD/svg11.dtd">
<svg version="1.1" id="Layer_1" xmlns="http://www.w3.org/2000/svg" xmlns:xlink="http://www.w3.org/1999/xlink" x="0px" y="0px"
	 width="18px" height="18px" viewBox="0 0 18 18" enable-background="new 0 0 18 18" xml:space="preserve">
<path fill-rule="evenodd" clip-rule="evenodd" fill="none" stroke="#B3B3B3" stroke-miterlimit="10" d="M9,0.501
	c0,0-3.141,0.366-3.368,2.01c-0.228,1.646,0.42,3.551,0.42,3.551s-0.652,0.79-0.59,1.125c0.062,0.334,1.438,2.791,1.905,3.204
	c0.047,0.867-0.025,2.204-0.025,2.204s-2.429,1.757-4.124,2.389c-1.695,0.63-2.437,2.184-2.205,2.471c0.408-0.073,15.908,0,15.908,0
	s-0.487-2.461-3.531-3.214c-1.83-0.567-2.595-1.409-2.595-1.409l-0.267-2.384c0,0,1.562-1.709,1.624-2.579
	C12.213,7,12.62,6.937,12.62,6.937l-0.463-0.929c0,0,0.501-1.83,0.455-2.508c-0.046-0.678-0.416-1.954-0.859-1.954
	c-0.441,0-1.415-0.445-1.477-0.717C10.214,0.559,9,0.501,9,0.501z"/>
</svg>
