<?xml version="1.0" encoding="utf-8"?>
<!-- Generator: Adobe Illustrator 16.0.0, SVG Export Plug-In . SVG Version: 6.00 Build 0)  -->
<!DOCTYPE svg PUBLIC "-//W3C//DTD SVG 1.1//EN" "http://www.w3.org/Graphics/SVG/1.1/DTD/svg11.dtd">
<svg version="1.1" id="Layer_1" xmlns="http://www.w3.org/2000/svg" xmlns:xlink="http://www.w3.org/1999/xlink" x="0px" y="0px"
	 width="18px" height="18px" viewBox="0 0 18 18" enable-background="new 0 0 18 18" xml:space="preserve">
<g>
	<path fill="none" stroke="#B3B3B3" stroke-miterlimit="10" d="M3.001,11.122c1.994,5.052,4.752,6.787,6.121,6.299
		c0.391-0.14,1.213-0.708,1.438-0.983c0.232-0.281,0.23-0.673,0.035-0.977c-0.605-0.92-1.162-1.876-1.673-2.851
		c-0.166-0.319-0.504-0.458-0.849-0.36c-0.403,0.118-0.752,0.444-1.178,0.632c-0.344,0.149-1.242-0.215-2.156-2.459
		c-0.865-2.264-0.458-3.151-0.106-3.28C5.068,6.98,5.544,6.977,5.92,6.78c0.316-0.167,0.466-0.498,0.37-0.849
		C5.999,4.87,5.75,3.79,5.562,2.701C5.498,2.343,5.233,2.059,4.873,2.014C4.52,1.972,3.537,2.131,3.159,2.297
		C1.831,2.896,1.01,6.069,3.001,11.122z"/>
	<path fill="none" stroke="#B3B3B3" stroke-linecap="round" stroke-miterlimit="10" d="M9.415,3.374
		c2.515,1.403,4.548,4.152,3.824,8.536"/>
	<path fill="none" stroke="#B3B3B3" stroke-linecap="round" stroke-miterlimit="10" d="M10.562,0.5
		c3.564,1.988,6.443,5.885,5.418,12.099"/>
	<path fill="none" stroke="#B3B3B3" stroke-linecap="round" stroke-miterlimit="10" d="M8.161,5.772
		c1.559,0.87,2.818,2.572,2.369,5.289"/>
</g>
</svg>
