<?xml version="1.0" encoding="utf-8"?>
<!-- Generator: Adobe Illustrator 16.0.0, SVG Export Plug-In . SVG Version: 6.00 Build 0)  -->
<!DOCTYPE svg PUBLIC "-//W3C//DTD SVG 1.1//EN" "http://www.w3.org/Graphics/SVG/1.1/DTD/svg11.dtd">
<svg version="1.1" id="Layer_1" xmlns="http://www.w3.org/2000/svg" xmlns:xlink="http://www.w3.org/1999/xlink" x="0px" y="0px"
	 width="421.941px" height="67.646px" viewBox="0 0 421.941 67.646" enable-background="new 0 0 421.941 67.646"
	 xml:space="preserve">
<g>
	<path fill="#FAA41E" d="M60.8,18.104c0,0.899,0.4,1.7,1.1,2.3c0.8,0.7,1.601,0.9,2.601,0.9c1.1,0,2-0.2,2.7-0.9
		c0.8-0.6,1.1-1.4,1.1-2.3c0-0.9-0.3-1.7-1.1-2.3c-0.7-0.7-1.6-1-2.7-1c-1,0-1.8,0.3-2.601,1C61.2,16.404,60.8,17.204,60.8,18.104z"
		/>
	<path fill="#FAA41E" d="M290.599,24.804h5l-3,17.799c-0.301,2.201-0.5,4-0.5,5.201c0.102,1.299,0.5,2.398,1,3.299
		c0.801,1.101,2.199,1.701,4.199,1.701h14.5l1.801-10.201h-5.301c-0.699,0-1.1-0.5-1-1.5L310,24.804h6.5l1.299-8.101h-6.5l1.9-11.6
		h-14.4l-1.898,11.6h-5L290.599,24.804z"/>
	<path fill="#FAA41E" d="M334.4,17.104H321l-5.9,35.701H329.3l0.9-5.602l0.6-4.101l1.299-7.399c0.4-2.1,2.102-3.7,5-4.8
		c1.9-0.7,4.602-0.8,8.303-0.4l0.6-3.6l1.799-11.3h-3.299c-1.9,0.2-3.5,0.7-5.1,1.5c-2.303,1.2-4.303,3.3-5.9,6.2L334.4,17.104z"/>
	<path fill="#FAA41E" d="M366.9,23.704c2.199,0,3.199,0.9,2.898,2.601c-0.199,2.699-2.699,4-7.5,3.899c-2.199,0-4,0.101-5.699,0.3
		c-4.801,0.5-8.5,1.7-10.699,3.7c-2.602,2.102-4.102,4.7-4.801,7.8c-0.801,3-0.301,5.601,1.4,7.601c1.299,2,3.199,3,5.6,3.201h9.199
		c4-0.102,7.5-2,10.301-5.701l-0.5,3c-0.1,1.201,0.199,2.101,1,2.701h13c-0.801-0.602-1.1-1.602-0.898-2.802l3.898-24.199
		c0.5-3.101,0-5.5-1.6-7.4c-1.5-1.8-3.701-2.7-6.701-2.8h-14.199c-8.301,0.399-13.398,4.2-15,11.3h13.5c0.602-2.1,2.102-3.1,4.5-3.2
		H366.9z M363.099,37.604c1.5-0.101,3.199-0.5,5.199-1.199c-1.299,5.3-4.299,8.4-9,9.199c-0.1,0-0.299,0-0.5,0
		c-1,0-1.799-0.5-2.299-1.199c-0.6-0.801-0.701-1.7-0.5-2.7c0.299-1.101,0.799-2,1.6-2.601c0.699-0.699,1.5-1.101,2.301-1.299
		C360.599,37.604,361.798,37.604,363.099,37.604z"/>
	<path fill="#FAA41E" d="M407.099,3.304h-13.801l-8.199,49.5H399L407.099,3.304z"/>
	<path fill="#FAA41E" d="M264.099,23.304l1-6.2h-13.398L245.9,52.805H260l0.9-5.602l0.699-4.101l1.801-11.299
		c0.398-1.4,1.301-2.601,2.398-3.4c1.301-0.8,2.602-1.2,4.102-1.1c1.6,0,2.699,0.5,3.6,1.3c0.601,0.7,1,1.6,1,2.6l-0.199,0.9
		l-3.4,20.701H285l4-24.5c0.101-1.2,0.301-2.4,0.201-3.5c-0.102-2.301-0.701-4.2-1.9-5.7c-0.2-0.3-0.5-0.7-0.7-0.9
		c-0.5-0.399-1-0.8-1.5-1.1c-1.5-0.9-3.3-1.4-5.601-1.5H275.1c-1.8,0.2-3.5,0.7-5,1.5C267.798,18.304,265.798,20.404,264.099,23.304
		z"/>
	<path fill="#FAA41E" d="M231,15.604H227.6c-5.101,0.3-9.802,2.1-14.101,5.3c-4.101,3.2-6.8,7.2-7.9,11.7c-0.1,0.5-0.2,1.1-0.3,1.6
		c-0.5,2.602-0.4,5.102,0.2,7.5c0.7,2.399,2,4.602,3.7,6.399c1.4,1.601,3.4,2.899,5.8,3.601c1.899,0.7,4.399,1,7.299,1.102h1.5
		c3.102-0.102,5.701-0.5,8-1.102c2.602-0.7,5-2,7.201-3.601c2.299-1.799,4.101-3.899,5.601-6.399c0.101-0.101,0.198-0.398,0.3-0.5
		h-13.602l0,0c-1.898,2.102-3.898,3.102-6.299,3.102c-2.201,0-4-1-5.201-3.102c-0.799-1.101-1.299-2.398-1.398-3.8h28.2
		c0.399-1.1,0.601-2.1,0.8-3.2c0.6-4,0.1-7.5-1.8-10.5c-0.601-1-1.302-1.899-2.2-2.8C240.298,17.704,236.1,15.904,231,15.604z
		 M222,26.704c1.9-2,3.9-3,6.102-3c2.398,0,4.199,1,5.398,3c0.701,1,0.9,2.2,0.5,3.5l-14.398-0.1
		C220.298,28.804,221,27.704,222,26.704z"/>
	<path fill="#3E719A" d="M131.9,17.104h-0.8c-4.1,0.1-8,1.8-11.5,5.1c-3.7,3.5-6.1,7.8-7.1,12.8c-1,4.9-0.4,9.101,2,12.5
		c2.3,3.4,5.4,5.2,9.4,5.302c5.9,0.198,10.1-1,12.6-3.602c-0.4,6.102-2.2,9.3-5.6,9.8c-3.4,0.4-5.2-0.5-5.3-2.5h-15.2
		c0.4,2.2,1.4,4.2,3.1,6c1.2,1.5,2.7,2.7,4.5,3.4c1.7,0.8,3.5,1.4,5.5,1.6c1.9,0.101,3.9,0.2,5.8,0.101
		c1.9-0.101,3.7-0.101,5.6-0.399c1.8-0.2,3.6-0.7,5.4-1.5c1.7-0.7,3.3-1.7,4.7-3.101c1.5-1.399,2.7-2.899,3.5-4.699
		c0.7-1.6,1.1-3.301,1.4-5.1l5.6-34.5h-12.9v5.8c-0.2-0.7-0.6-1.3-1-1.9C139.4,18.804,136.1,17.104,131.9,17.104z M138.3,30.004
		c0.8,1.5,1.1,3.301,0.7,5.5c-0.4,2.101-1.3,4-2.6,5.4c-1.4,1.6-2.9,2.3-4.5,2.3s-2.9-0.7-3.8-2.3c-0.8-1.4-1.1-3.301-0.7-5.4
		c0.4-2.199,1.2-4,2.6-5.5c1.4-1.399,2.9-2.199,4.5-2.199S137.4,28.604,138.3,30.004z"/>
	<path fill="#3E719A" d="M109.5,18.204c-1.7-1.6-4-2.399-7.1-2.6H98c-4.5,0.3-8.1,2.899-11,7.7l1-6.2H74.6l-5.9,35.701h14.2l3.4-21
		c0.4-1.4,1.3-2.601,2.4-3.4c1.3-0.8,2.6-1.2,4.1-1.1c1.6,0,2.7,0.5,3.6,1.3c0.6,0.7,1,1.6,1,2.6l-0.2,0.9l-3.4,20.701h14.1l4-24.5
		c0.6-3.9,0-7-1.6-9.2C110,18.804,109.8,18.404,109.5,18.204z"/>
	<path fill="#3E719A" d="M51.3,18.604l0.4-2.601c1.1-8.1-3.4-12.3-13.5-12.699H8.1L0,52.805h16l2.8-17h9.5
		c2.9,0.299,4.1,1.6,3.8,3.898l-1.8,11c-0.1,1,0.5,1.8,1.9,2.102h15.6c-1.3-0.302-2-1.102-1.8-2.102l1.8-10.898v-0.102
		c0,0,0-0.101,0-0.2c0.8-5.5-1.4-8.8-6.6-9.699C46.8,28.004,50.2,24.204,51.3,18.604z M34.6,23.204c-0.9,1.2-1.9,1.9-3.3,1.9H20.5
		l1.6-10.2h10.8c2.2,0.2,3.2,1.7,2.9,4.6C35.7,21.004,35.3,22.204,34.6,23.204z"/>
	<path fill="#FAA41E" d="M74.1,9.804c0.7,0.6,1.3,1.3,1.8,2l2.8-2c-0.6-0.801-1.3-1.5-2-2.2c-3-2.601-6.5-4-10.6-4.3H63
		c-2.9,0.3-5.5,1-7.9,2.5l1.7,2.699c2.3-1.399,4.9-2.1,7.7-2.1C68.3,6.404,71.5,7.604,74.1,9.804z"/>
	<path fill="#FAA41E" d="M73,13.804c-0.5-0.601-1-1.2-1.5-1.7c-2-1.7-4.3-2.5-7-2.5c-2.101,0-4.101,0.6-5.8,1.7l1.7,2.6
		c1.2-0.8,2.601-1.3,4.101-1.3c1.8,0,3.3,0.5,4.5,1.6c0.6,0.4,1,1,1.3,1.601L73,13.804z"/>
	<path fill="#3E719A" d="M68.7,23.704H58.1l-8.3,29.102h14.7L68.7,23.704z"/>
	<path fill="#FAA41E" d="M165.1,8.804c-2.3,2.5-4.2,5.199-5.5,7.8c-1.2,2.7-2.2,5.2-2.7,7.5c-0.6,2.2-1,5.3-1.2,9.1
		c-0.2,3.8,0.6,7,2.3,9.899l1.1,1.601c3.2,4.399,7.7,7,13.8,7.899c1.1,0.101,2.2,0.201,3.2,0.201c3,0,5.3-0.102,6.9-0.201
		c3-0.399,5.4-1,7.4-1.899c0.7-0.398,1.6-0.8,2.5-1.5l2.1-1.601c0.5-0.399,0.9-0.799,1.3-1.101c0.1-0.198,0.2-0.3,0.2-0.3
		c1.1-1,2.1-2.101,3-3.2c1.6-1.899,3-4.198,4.1-6.698c0.5-1.201,1-2.5,1.5-3.701h-15.2c-0.5,1.7-1.6,3.6-3.4,5.701
		c-1.7,1.898-4.1,3-7.1,3c-3.1,0.1-5.3-1.201-6.4-4c-1.2-2.701-1.5-6.102-0.9-10.102c0.7-4,2-7.399,4.2-10.1
		c1.1-1.5,2.3-2.601,3.6-3.3c3-1.5,5.7-1.4,8.2,0c2.2,1.3,3.4,3.6,3.7,6.899h15.5c0-0.6,0-1.3-0.1-1.899c-0.1-2.7-0.7-5.2-1.9-7.9
		c-0.1-0.1-0.2-0.3-0.3-0.6c-0.5-0.9-1-1.801-1.6-2.7c-1.4-2-3.4-3.7-5.9-5c-1.2-0.7-2.6-1.3-4-1.601
		c-1.5-0.399-3.4-0.699-5.7-0.899c-2.3-0.2-4.4-0.101-6.4,0.2c-1.9,0.3-3.6,0.6-4.9,1c-1.3,0.3-2.9,1-4.9,2
		C169.6,4.404,167.5,6.304,165.1,8.804z"/>
</g>
<g>
	<g>
		<path fill="#FAA41E" d="M412.937,13.171V6.48h2.967c0.598,0,1.051,0.06,1.359,0.18c0.311,0.12,0.561,0.333,0.744,0.637
			c0.188,0.306,0.279,0.642,0.279,1.01c0,0.475-0.154,0.875-0.461,1.199c-0.309,0.326-0.783,0.533-1.424,0.621
			c0.232,0.112,0.41,0.225,0.533,0.333c0.258,0.237,0.502,0.534,0.734,0.891l1.164,1.82h-1.113l-0.887-1.392
			c-0.258-0.401-0.471-0.709-0.639-0.922s-0.316-0.362-0.449-0.447s-0.268-0.145-0.404-0.178c-0.1-0.021-0.264-0.032-0.492-0.032
			h-1.027v2.971H412.937z M413.824,9.433h1.902c0.404,0,0.723-0.042,0.949-0.125c0.229-0.084,0.402-0.219,0.521-0.402
			s0.178-0.384,0.178-0.6c0-0.316-0.115-0.577-0.346-0.78c-0.229-0.204-0.592-0.306-1.088-0.306h-2.117V9.433z"/>
	</g>
	<path fill="#FAA41E" d="M415.578,16.027c-3.506,0-6.361-2.854-6.361-6.361c0-3.508,2.855-6.361,6.361-6.361
		c3.508,0,6.363,2.854,6.363,6.361S419.085,16.027,415.578,16.027L415.578,16.027z M415.578,4.083c-3.078,0-5.582,2.505-5.582,5.583
		s2.504,5.583,5.582,5.583c3.08,0,5.584-2.504,5.584-5.583S418.658,4.083,415.578,4.083L415.578,4.083z"/>
</g>
</svg>
