<?xml version="1.0" encoding="utf-8"?>
<!-- Generator: Adobe Illustrator 16.0.0, SVG Export Plug-In . SVG Version: 6.00 Build 0)  -->
<!DOCTYPE svg PUBLIC "-//W3C//DTD SVG 1.1//EN" "http://www.w3.org/Graphics/SVG/1.1/DTD/svg11.dtd">
<svg version="1.1" id="Layer_1" xmlns="http://www.w3.org/2000/svg" xmlns:xlink="http://www.w3.org/1999/xlink" x="0px" y="0px"
	 width="45px" height="45px" viewBox="0 0 45 45" enable-background="new 0 0 45 45" xml:space="preserve">
<g>
	<path fill="#0684BD" d="M22.5,45.021c-12.421,0-22.526-10.103-22.526-22.521S10.079-0.021,22.5-0.021S45.026,10.082,45.026,22.5
		S34.921,45.021,22.5,45.021z M22.5,1C10.643,1,0.995,10.645,0.995,22.5C0.995,34.354,10.643,44,22.5,44s21.505-9.646,21.505-21.5
		C44.005,10.645,34.357,1,22.5,1z"/>
	<path fill="#0684BD" d="M22.5,45.021c-5.479,0-10.674-1.941-14.788-5.562l-0.569-0.5l0.489-0.578
		c1.572-1.614,3.925-2.747,7.101-4.072c0.778-0.311,3.334-1.875,3.447-2.477c0.057-0.312,0.042-1.957-0.003-3.416
		c-0.792-0.896-1.827-2.425-2.49-4.351c-0.681-0.357-1.145-1.149-1.327-2.108c-0.193-1.029,0.867-2.49,1.229-3.007
		c-1.073-3.074-1.617-6.901,0.304-9.204c1.498-1.798,3.792-2.708,6.817-2.708l0.271-0.003c2.518,0,3.097,0.527,3.642,1.271
		c0.105,0.144,0.19,0.259,0.318,0.363c1.393,0.002,2.403,0.648,3.199,1.702c1.51,2.001,0.641,5.714-0.102,8.876
		c0.42,0.514,0.882,1.682,0.638,2.785c-0.229,1.021-0.883,1.93-1.004,2.591c-0.537,1.766-1.98,2.813-2.846,3.818l-0.024,3.601
		c0.135,1.011,2.693,2.172,3.636,2.321c3.058,0.845,5.587,2.266,7.019,3.963l0.487,0.577l-0.567,0.501
		C33.262,43.025,27.979,45.021,22.5,45.021z M8.8,39.04c3.919,3.314,8.864,4.948,13.7,4.948c4.835,0,9.729-1.688,14.071-5.245
		c-1.298-1.22-3.542-2.575-6.375-3.334c-2.077-0.9-4.362-1.32-4.282-3.644l-0.006-3.928l0.216-0.225
		c0.856-0.891,2.375-2.893,2.598-3.383c0.19-0.416,0.293-1.448,0.293-1.448c0.188-0.176,0.454-0.532,0.559-0.997
		c0.126-0.571,0.317-0.888,0.271-1.066l-0.429-0.391l-0.463-1.323c1.076-3.95,1.36-6.626,0.099-8.299
		c-0.507-0.672-1.199-0.998-2.116-0.998l-0.42,0.015l-0.198-0.117c-0.505-0.3-0.757-0.644-0.94-0.895
		c-0.262-0.356-0.468-0.639-2.396-0.639l-0.26,0.003c-1.845-0.026-4.841,1.174-5.628,2.051c-1.736,1.938-1.795,4.433-0.425,8.577
		l0.021,1.429l-1.197,0.518c-0.05,0.191-0.084,0.586,0.018,1.131c0.118,0.621,0.533,1.061,0.67,1.122l0.582-0.023l0.046,0.535
		c0.682,2.061,1.352,3.378,2.109,4.143l0.213,0.214l0.01,0.303c0.027,0.781,0.107,3.384-0.012,4.038
		c-0.205,1.102-2.396,2.646-4.386,3.451C12.15,36.279,10.113,37.808,8.8,39.04z"/>
</g>
<path fill="none" stroke="#0684BD" stroke-miterlimit="10" d="M30.689,21.799c0,0-2.597,4.833-7.718,4.833"/>
<path fill="none" stroke="#0684BD" stroke-miterlimit="10" d="M23.837,26.627c0,0.261-0.21,0.47-0.469,0.47h-0.722
	c-0.259,0-0.469-0.209-0.469-0.47c0-0.258,0.21-0.469,0.469-0.469h0.722C23.627,26.158,23.837,26.369,23.837,26.627z"/>
<g>
	<path fill-rule="evenodd" clip-rule="evenodd" fill="#FFFFFF" stroke="#0684BD" stroke-miterlimit="10" d="M29.878,19.102
		c0.446,0,0.808,0.362,0.808,0.808v4.357c0,0.447-0.361,0.809-0.808,0.809s-0.809-0.361-0.809-0.809V19.91
		C29.069,19.464,29.432,19.102,29.878,19.102z"/>
	<path fill-rule="evenodd" clip-rule="evenodd" fill="#FFFFFF" stroke="#0684BD" stroke-miterlimit="10" d="M31.506,21.3
		c0.444,0,0.805,0.36,0.805,0.804v0.557c0,0.443-0.36,0.802-0.805,0.802C31.502,22.772,31.507,22.045,31.506,21.3z"/>
</g>
</svg>
