<?xml version="1.0" encoding="utf-8"?>
<!-- Generator: Adobe Illustrator 16.0.0, SVG Export Plug-In . SVG Version: 6.00 Build 0)  -->
<!DOCTYPE svg PUBLIC "-//W3C//DTD SVG 1.1//EN" "http://www.w3.org/Graphics/SVG/1.1/DTD/svg11.dtd">
<svg version="1.1" id="Layer_1" xmlns="http://www.w3.org/2000/svg" xmlns:xlink="http://www.w3.org/1999/xlink" x="0px" y="0px"
	 width="45px" height="45px" viewBox="0 0 45 45" enable-background="new 0 0 45 45" xml:space="preserve">
<g>
	<path fill-rule="evenodd" clip-rule="evenodd" fill="none" stroke="#0684BD" stroke-miterlimit="10" d="M22.5,0.5
		c12.15,0,22,9.851,22,22c0,12.151-9.851,22-22,22c-12.151,0-22.001-9.849-22.001-22C0.499,10.351,10.35,0.5,22.5,0.5z"/>
</g>
<g>
	<path fill-rule="evenodd" clip-rule="evenodd" fill="none" stroke="#0684BD" stroke-miterlimit="10" d="M14.5,28.161
		c1.381,0,2.5,1.165,2.5,2.605c0,1.438-1.119,2.604-2.5,2.604S12,32.205,12,30.767C12,29.326,13.118,28.161,14.5,28.161z"/>
</g>
<g>
	<path fill-rule="evenodd" clip-rule="evenodd" fill="none" stroke="#0684BD" stroke-miterlimit="10" d="M22.434,28.16
		c1.381,0,2.5,1.165,2.5,2.605c0,1.438-1.118,2.604-2.5,2.604s-2.5-1.165-2.5-2.604C19.934,29.325,21.053,28.16,22.434,28.16z"/>
</g>
<g>
	<path fill-rule="evenodd" clip-rule="evenodd" fill="none" stroke="#0684BD" stroke-miterlimit="10" d="M30.502,28.16
		c1.381,0,2.499,1.165,2.499,2.605c0,1.438-1.118,2.604-2.499,2.604c-1.382,0-2.5-1.165-2.5-2.604
		C28.002,29.325,29.12,28.16,30.502,28.16z"/>
</g>
<g>
	<path fill-rule="evenodd" clip-rule="evenodd" fill="none" stroke="#0684BD" stroke-miterlimit="10" d="M14.5,19.896
		c1.381,0,2.5,1.165,2.5,2.605c0,1.438-1.119,2.604-2.5,2.604S12,23.939,12,22.501C12,21.061,13.118,19.896,14.5,19.896z"/>
</g>
<g>
	<path fill-rule="evenodd" clip-rule="evenodd" fill="none" stroke="#0684BD" stroke-miterlimit="10" d="M22.434,19.895
		c1.381,0,2.5,1.165,2.5,2.605c0,1.439-1.118,2.603-2.5,2.603s-2.5-1.164-2.5-2.603C19.934,21.06,21.053,19.895,22.434,19.895z"/>
</g>
<g>
	<path fill-rule="evenodd" clip-rule="evenodd" fill="none" stroke="#0684BD" stroke-miterlimit="10" d="M30.502,19.895
		c1.381,0,2.499,1.165,2.499,2.605c0,1.439-1.118,2.603-2.499,2.603c-1.382,0-2.5-1.164-2.5-2.603
		C28.002,21.06,29.12,19.895,30.502,19.895z"/>
</g>
<g>
	<path fill-rule="evenodd" clip-rule="evenodd" fill="none" stroke="#0684BD" stroke-miterlimit="10" d="M14.5,11.631
		c1.381,0,2.5,1.165,2.5,2.605c0,1.438-1.119,2.604-2.5,2.604S12,15.674,12,14.236C12,12.796,13.118,11.631,14.5,11.631z"/>
</g>
<g>
	<path fill-rule="evenodd" clip-rule="evenodd" fill="none" stroke="#0684BD" stroke-miterlimit="10" d="M22.434,11.63
		c1.381,0,2.5,1.165,2.5,2.605c0,1.439-1.118,2.603-2.5,2.603s-2.5-1.164-2.5-2.603C19.934,12.795,21.053,11.63,22.434,11.63z"/>
</g>
<g>
	<path fill-rule="evenodd" clip-rule="evenodd" fill="none" stroke="#0684BD" stroke-miterlimit="10" d="M30.502,11.63
		c1.381,0,2.499,1.165,2.499,2.605c0,1.439-1.118,2.603-2.499,2.603c-1.382,0-2.5-1.164-2.5-2.603
		C28.002,12.795,29.12,11.63,30.502,11.63z"/>
</g>
</svg>
