<?xml version="1.0" encoding="utf-8"?>
<!-- Generator: Adobe Illustrator 16.0.0, SVG Export Plug-In . SVG Version: 6.00 Build 0)  -->
<!DOCTYPE svg PUBLIC "-//W3C//DTD SVG 1.1//EN" "http://www.w3.org/Graphics/SVG/1.1/DTD/svg11.dtd">
<svg version="1.1" id="Layer_1" xmlns="http://www.w3.org/2000/svg" xmlns:xlink="http://www.w3.org/1999/xlink" x="0px" y="0px"
	 width="45px" height="45px" viewBox="0 0 45 45" enable-background="new 0 0 45 45" xml:space="preserve">
<g>
	<path fill="none" stroke="#0684BD" stroke-miterlimit="10" d="M22.5,0.5c12.15,0,22,9.851,22,22c0,12.15-9.852,22-22,22
		c-12.151,0-22.001-9.85-22.001-22C0.499,10.351,10.35,0.5,22.5,0.5z"/>
</g>
<g>
	<g>
		<path fill="#0684BD" d="M22.605,20.466c-2.07,0-3.75,1.68-3.75,3.75c0,2.07,1.68,3.75,3.75,3.75c2.071,0,3.75-1.68,3.75-3.75
			C26.355,22.146,24.678,20.466,22.605,20.466z M22.605,27.334c-1.721,0-3.115-1.396-3.115-3.117c0-1.721,1.396-3.118,3.115-3.118
			c1.723,0,3.117,1.396,3.117,3.118C25.723,25.938,24.328,27.334,22.605,27.334z M36.516,16.769
			c-1.918-2.271-6.651-3.681-12.658-3.772l-2.22-0.034c-6.006-0.093-10.847,1.17-12.949,3.378l-0.086,0.099
			c-1.305,1.519-0.96,4.709-0.091,6.121c0.554,0.897,1.162,0.887,1.431,0.811c1.236-0.205,2.877-0.632,4.195-1.09
			c-1.316,1.602-3.311,5.043-3.311,5.676v2.586c0,0.828,0.672,1.5,1.5,1.5H32.4c0.828,0,1.5-0.672,1.5-1.5v-2.586
			c0-0.6-1.926-3.736-3.303-5.422c1.274,0.497,2.866,0.971,4.057,1.206c0.269,0.084,0.802,0.125,1.369-0.537
			C37.178,21.861,37.871,18.372,36.516,16.769z M32.9,27.957v1.586c0,0.828-0.672,1.5-1.5,1.5H13.326c-0.828,0-1.5-0.672-1.5-1.5
			v-1.586c0-0.828,3.435-6.5,4.264-6.5h-0.091c0.042-0.027,0.102-0.057,0.137-0.084l0.063-0.049l0.043-0.067
			c0.341-0.536,0.272-1.096,0.215-1.589c-0.077-0.646-0.091-1.041,0.372-1.451c0.143-0.125,0.906-0.521,4.827-0.508l1.693,0.025
			c4.01,0.102,4.754,0.527,4.887,0.658c0.437,0.428,0.385,0.812,0.255,1.459c-0.099,0.491-0.21,1.049,0.087,1.594l0.006,0.012
			h-0.007c0.003,0.001,0.008,0.007,0.012,0.009l0.026,0.05l0.06,0.051c0.04,0.035,0.109,0.074,0.16,0.108
			C29.907,22.74,32.9,27.201,32.9,27.957z M35.371,22.642c-0.081,0.096-0.287,0.312-0.48,0.252
			c-2.197-0.437-4.867-1.428-5.578-1.949c-0.1-0.243-0.051-0.523,0.033-0.94c0.123-0.621,0.295-1.473-0.494-2.244
			c-0.349-0.343-1.314-0.809-5.651-0.903l-0.435-0.006v0.002l-0.343-0.006v-0.006l-0.439-0.004
			c-4.339-0.037-5.342,0.396-5.718,0.729c-0.857,0.75-0.751,1.578-0.673,2.228c0.05,0.419,0.075,0.7-0.043,0.938
			c-0.751,0.5-3.5,1.408-5.773,1.787c-0.159,0.045-0.375-0.194-0.521-0.433C8.535,20.917,8.249,18.172,9.257,17l0.057-0.062
			c1.49-1.567,5.503-3.205,12.291-3.102l2.216,0.034c6.789,0.104,10.662,1.862,12.025,3.476
			C36.869,18.554,36.288,21.575,35.371,22.642z"/>
	</g>
</g>
</svg>
