<?xml version="1.0" encoding="utf-8"?>
<!-- Generator: Adobe Illustrator 16.0.0, SVG Export Plug-In . SVG Version: 6.00 Build 0)  -->
<!DOCTYPE svg PUBLIC "-//W3C//DTD SVG 1.1//EN" "http://www.w3.org/Graphics/SVG/1.1/DTD/svg11.dtd">
<svg version="1.1" id="Layer_1" xmlns="http://www.w3.org/2000/svg" xmlns:xlink="http://www.w3.org/1999/xlink" x="0px" y="0px"
	 width="45px" height="45px" viewBox="0 0 45 45" enable-background="new 0 0 45 45" xml:space="preserve">
<g>
	<path fill="none" stroke="#0684BD" stroke-miterlimit="10" d="M22.5,0.5c12.15,0,22,9.851,22,22c0,12.15-9.852,22-22,22
		c-12.151,0-22.001-9.85-22.001-22C0.499,10.351,10.35,0.5,22.5,0.5z"/>
</g>
<g>
	<path fill="none" stroke="#0684BD" stroke-miterlimit="10" d="M24.4,37.788c-1.187-0.522-1.451-0.651-1.75-0.892l-0.318-0.316
		c-0.479-0.466-0.744-0.723-0.836-1.416v-3.141c0.84-0.979,1.375-2.285,1.896-4.004c0.708-0.27,1.412-1.164,1.636-2.16
		c0.236-1.074,0.124-1.975-0.284-2.476c1.154-4.366,0.978-8.096-0.492-10.046c-0.774-1.027-1.899-1.571-3.254-1.571
		c-0.125-0.103-0.208-0.216-0.31-0.356c-0.53-0.725-1.093-1.239-3.544-1.239l-0.263,0.003c-2.945,0-5.177,0.887-6.636,2.639
		c-1.869,2.244-2.399,5.822-1.58,10.644c-0.353,0.504-0.46,1.348-0.271,2.349c0.177,0.937,0.768,1.783,1.431,2.133
		c0.645,1.876,1.315,3.18,2.086,4.055c0.044,1.419,0.058,3.024,0.003,3.328c-0.083,0.439-0.319,0.844-0.748,1.272
		c-0.401,0.402-0.937,0.696-2.05,1.14c-0.653,0.181-1.272,0.389-1.866,0.614C11.204,42.154,16.576,44.5,22.5,44.5
		c3.039,0,5.935-0.616,8.568-1.731c0.027-0.024,0.058-0.044,0.085-0.068l0.552-0.488l-0.475-0.562
		C29.838,39.996,27.376,38.611,24.4,37.788z"/>
	<path fill="none" stroke="#0684BD" stroke-miterlimit="10" d="M31.07,42.768c2.089-0.885,4.008-2.086,5.708-3.538
		c-0.415-0.159-0.843-0.307-1.292-0.433c-0.893-0.398-1.092-0.497-1.316-0.68l-0.239-0.242c-0.36-0.355-0.56-0.551-0.63-1.08v-2.397
		c0.633-0.747,1.035-1.743,1.428-3.056c0.532-0.205,1.062-0.888,1.23-1.648c0.178-0.819,0.093-1.507-0.215-1.889
		c0.869-3.332,0.736-6.18-0.369-7.667c-0.583-0.784-1.43-1.199-2.449-1.199c-0.094-0.078-0.155-0.164-0.232-0.271
		c-0.398-0.553-0.822-0.945-2.666-0.945l-0.197,0.002c-1.838,0-3.301,0.474-4.375,1.396c-0.081,1.315-0.311,2.748-0.712,4.264
		c0.408,0.501,0.521,1.401,0.284,2.476c-0.198,0.884-0.775,1.686-1.398,2.044c-0.245,0.388-0.319,1.01-0.183,1.749
		c0.134,0.715,0.578,1.361,1.076,1.628c0.484,1.432,0.988,2.427,1.569,3.095c0.033,1.083,0.043,2.308,0.002,2.54
		c-0.062,0.335-0.24,0.644-0.562,0.971c-0.064,0.064-0.137,0.125-0.213,0.185c2.561,0.839,4.665,2.1,5.911,3.579l0.475,0.562
		L31.153,42.7C31.127,42.724,31.098,42.744,31.07,42.768z"/>
</g>
</svg>
