<?xml version="1.0" encoding="utf-8"?>
<!-- Generator: Adobe Illustrator 16.0.0, SVG Export Plug-In . SVG Version: 6.00 Build 0)  -->
<!DOCTYPE svg PUBLIC "-//W3C//DTD SVG 1.1//EN" "http://www.w3.org/Graphics/SVG/1.1/DTD/svg11.dtd">
<svg version="1.1" id="Layer_1" xmlns="http://www.w3.org/2000/svg" xmlns:xlink="http://www.w3.org/1999/xlink" x="0px" y="0px"
	 width="32px" height="18px" viewBox="0 0 32 18" enable-background="new 0 0 32 18" xml:space="preserve">
<path fill="#FF3B30" d="M26.438,4.021c2.75,0,4.979,2.229,4.979,4.979s-2.229,4.979-4.979,4.979S21.458,11.75,21.458,9
	S23.688,4.021,26.438,4.021z"/>
<g>
	<g>
		<path fill="#B3B3B3" d="M5.968,6.468h4.955c0.551,0,1-0.447,1-1V2.516c0-0.553-0.449-1-1-1H5.968c-0.553,0-1,0.447-1,1v2.952
			C4.968,6.021,5.415,6.468,5.968,6.468z M5.95,2.492h5.014v2.993H5.95V2.492z M9.98,11.452H7c-0.551,0-1,0.448-1,1.001v2.992
			c0,0.552,0.448,1,1,1h2.98c0.553,0,1-0.448,1-1v-2.992C10.98,11.9,10.533,11.452,9.98,11.452z M10.005,15.438h-3.03v-2.992h3.03
			V15.438z M2.981,9.494h5.017v0.992h0.983V9.494h5.009V8.506H8.981V7.503H7.998v1.003H2.981V8.502H1.996v1.984H2.98L2.981,9.494
			L2.981,9.494z M14.982,8.502h-0.984v1.984h0.984V8.502z M15.941,11.492h-2.98c-0.554,0-1,0.447-1,1v2.992c0,0.553,0.446,1,1,1
			h2.98c0.551,0,1-0.447,1-1v-2.992C16.941,11.939,16.492,11.492,15.941,11.492z M15.967,15.479h-3.032v-2.994h3.032V15.479z
			 M3.98,11.452H1c-0.552,0-1,0.448-1,1.001v2.992c0,0.552,0.448,1,1,1h2.98c0.552,0,1-0.448,1-1v-2.992
			C4.98,11.9,4.532,11.452,3.98,11.452z M4.006,15.438h-3.03v-2.992h3.03V15.438z"/>
	</g>
</g>
</svg>
