<?xml version="1.0" encoding="utf-8"?>
<!-- Generator: Adobe Illustrator 16.0.0, SVG Export Plug-In . SVG Version: 6.00 Build 0)  -->
<!DOCTYPE svg PUBLIC "-//W3C//DTD SVG 1.1//EN" "http://www.w3.org/Graphics/SVG/1.1/DTD/svg11.dtd">
<svg version="1.1" id="Layer_1" xmlns="http://www.w3.org/2000/svg" xmlns:xlink="http://www.w3.org/1999/xlink" x="0px" y="0px"
	 width="32px" height="18px" viewBox="0 0 32 18" enable-background="new 0 0 32 18" xml:space="preserve">
<path fill="#FF3B30" d="M26.438,4.021c2.75,0,4.979,2.229,4.979,4.979s-2.229,4.979-4.979,4.979S21.458,11.75,21.458,9
	S23.688,4.021,26.438,4.021z"/>
<g>
	<g>
		<path fill="#B3B3B3" d="M12.5,6.512c-1.375,0-2.491,1.115-2.491,2.492c0,0.566,0.197,1.083,0.515,1.502H7.478
			c0.319-0.419,0.515-0.936,0.515-1.502c0-1.377-1.116-2.492-2.492-2.492S3.008,7.627,3.008,9.004c0,1.376,1.116,2.492,2.493,2.492
			c0.051,0,0.098-0.012,0.148-0.016v0.016h6.999V11.48c1.307-0.078,2.346-1.151,2.346-2.478C14.994,7.627,13.876,6.512,12.5,6.512z
			 M5.526,10.49c-0.826,0-1.495-0.67-1.495-1.494c0-0.825,0.669-1.494,1.495-1.494c0.825,0,1.495,0.669,1.495,1.494
			C7.021,9.82,6.352,10.49,5.526,10.49z M12.527,10.49c-0.826,0-1.496-0.67-1.496-1.494c0-0.825,0.67-1.494,1.496-1.494
			c0.824,0,1.494,0.669,1.494,1.494C14.021,9.82,13.351,10.49,12.527,10.49z M17.012,3.507H1c-0.552,0-1,0.448-1,1v8.986
			c0,0.552,0.448,1,1,1h16.012c0.553,0,1-0.448,1-1V4.507C18.012,3.955,17.564,3.507,17.012,3.507z M17.018,12.492
			c0,0.553-0.449,1-1,1H2.02c-0.552,0-1-0.447-1-1V5.51c0-0.553,0.448-1,1-1h13.997c0.551,0,1,0.447,1,1V12.492L17.018,12.492z"/>
	</g>
</g>
</svg>
