<?xml version="1.0" encoding="utf-8"?>
<!-- Generator: Adobe Illustrator 16.0.0, SVG Export Plug-In . SVG Version: 6.00 Build 0)  -->
<!DOCTYPE svg PUBLIC "-//W3C//DTD SVG 1.1//EN" "http://www.w3.org/Graphics/SVG/1.1/DTD/svg11.dtd">
<svg version="1.1" id="Layer_1" xmlns="http://www.w3.org/2000/svg" xmlns:xlink="http://www.w3.org/1999/xlink" x="0px" y="0px"
	 width="13px" height="13px" viewBox="0 0 13 13" enable-background="new 0 0 13 13" xml:space="preserve">
<g>
	<g>
		<path fill-rule="evenodd" clip-rule="evenodd" fill="#B3B3B3" d="M12.652,11.979l-3.48-3.479c0.724-0.867,1.176-1.968,1.176-3.186
			c0-2.762-2.238-5-5-5c-2.761,0-5,2.238-5,5c0,2.761,2.239,5,5,5c1.183,0,2.255-0.428,3.11-1.114l3.487,3.487L12.652,11.979z
			 M5.348,9.38c-2.246,0-4.066-1.821-4.066-4.066c0-2.247,1.82-4.067,4.066-4.067s4.067,1.82,4.067,4.067
			C9.415,7.559,7.594,9.38,5.348,9.38z"/>
	</g>
</g>
</svg>
