<?xml version="1.0" encoding="utf-8"?>
<!-- Generator: Adobe Illustrator 15.0.2, SVG Export Plug-In . SVG Version: 6.00 Build 0)  -->
<!DOCTYPE svg PUBLIC "-//W3C//DTD SVG 1.1//EN" "http://www.w3.org/Graphics/SVG/1.1/DTD/svg11.dtd">
<svg version="1.1" id="Layer_1" xmlns="http://www.w3.org/2000/svg" xmlns:xlink="http://www.w3.org/1999/xlink" x="0px" y="0px"
	 width="56.693px" height="56.693px" viewBox="0 0 56.693 56.693" enable-background="new 0 0 56.693 56.693" xml:space="preserve">
<g>
	<g>
		<path fill="#ACCBDC" d="M11.228,29.939v7.583h5.657v-7.42c-0.758,0.582-1.7,0.93-2.727,0.93
			C13.036,31.032,12.013,30.618,11.228,29.939z"/>
	</g>
	<circle fill-rule="evenodd" clip-rule="evenodd" fill="#5A7F95" cx="14.062" cy="24.258" r="4.513"/>
	<g>
		<path fill="#5A7F95" d="M20.435,37.509l-0.2-4.329c-0.104-1.917-2.417-3.413-4.195-3.729c-0.785,0.79-2.002,8.17-2.002,8.17
			s-1.261-7.399-2.049-8.216c-1.947,0.158-4.443,1.791-4.549,3.774l-0.199,4.329C9.488,38.492,18.054,38.492,20.435,37.509z"/>
	</g>
	<g>
		<path fill="#ACCBDC" d="M39.802,29.939v7.583h5.656v-7.42c-0.756,0.582-1.698,0.93-2.726,0.93
			C41.609,31.032,40.586,30.618,39.802,29.939z"/>
	</g>
	<circle fill-rule="evenodd" clip-rule="evenodd" fill="#5A7F95" cx="42.635" cy="24.258" r="4.513"/>
	<g>
		<path fill="#5A7F95" d="M49.009,37.509l-0.198-4.329c-0.106-1.917-2.421-3.413-4.196-3.729c-0.785,0.79-2.003,8.17-2.003,8.17
			s-1.261-7.399-2.05-8.216c-1.946,0.158-4.443,1.791-4.548,3.774l-0.199,4.329C38.06,38.492,46.628,38.492,49.009,37.509z"/>
	</g>
	<g>
		<path fill="#97BDD4" d="M24.336,28.061v11.09h8.271V28.3c-1.105,0.85-2.484,1.359-3.986,1.359
			C26.98,29.659,25.485,29.055,24.336,28.061z"/>
	</g>
	<circle fill-rule="evenodd" clip-rule="evenodd" fill="#0B405E" cx="28.482" cy="19.752" r="6.602"/>
	<g>
		<path fill="#0B405E" d="M37.801,39.133L37.51,32.8c-0.154-2.803-3.539-4.992-6.136-5.453c-1.148,1.155-2.931,11.949-2.931,11.949
			s-1.841-10.822-2.994-12.018c-2.848,0.235-6.499,2.622-6.652,5.522l-0.293,6.333C21.791,40.569,34.32,40.569,37.801,39.133z"/>
	</g>
</g>
</svg>
