<?xml version="1.0" encoding="utf-8"?>
<!-- Generator: Adobe Illustrator 15.0.2, SVG Export Plug-In . SVG Version: 6.00 Build 0)  -->
<!DOCTYPE svg PUBLIC "-//W3C//DTD SVG 1.1//EN" "http://www.w3.org/Graphics/SVG/1.1/DTD/svg11.dtd">
<svg version="1.1" id="Layer_1" xmlns="http://www.w3.org/2000/svg" xmlns:xlink="http://www.w3.org/1999/xlink" x="0px" y="0px"
	 width="56.693px" height="56.693px" viewBox="0 0 56.693 56.693" enable-background="new 0 0 56.693 56.693" xml:space="preserve">
<g>
	<g>
		<path fill="#0B405E" d="M21.677,41.362c0,0.93-0.753,1.684-1.683,1.684h-5.852c-0.929,0-1.682-0.754-1.682-1.684v-4.99
			c0-0.932,0.753-1.686,1.682-1.686h5.852c0.93,0,1.683,0.754,1.683,1.686V41.362z"/>
		<path fill="#0B405E" d="M32.952,41.362c0,0.93-0.751,1.684-1.68,1.684h-5.852c-0.929,0-1.683-0.754-1.683-1.684v-4.99
			c0-0.932,0.754-1.686,1.683-1.686h5.852c0.929,0,1.68,0.754,1.68,1.686V41.362z"/>
		<path fill="#0B405E" d="M44.233,41.362c0,0.93-0.753,1.684-1.683,1.684h-5.853c-0.93,0-1.683-0.754-1.683-1.684v-4.99
			c0-0.932,0.753-1.686,1.683-1.686h5.853c0.93,0,1.683,0.754,1.683,1.686V41.362z"/>
		<rect x="27.49" y="24.615" fill="#97BDD4" width="1.053" height="9.18"/>
		<polygon fill="#97BDD4" points="39.86,33.796 38.807,33.796 38.807,29.731 17.595,29.731 17.595,33.796 16.542,33.796 
			16.542,28.679 39.86,28.679 		"/>
		<path fill="#0B405E" d="M36.774,22.123c0,0.927-0.751,1.682-1.682,1.682H20.942c-0.93,0-1.683-0.755-1.683-1.682v-6.795
			c0-0.927,0.753-1.681,1.683-1.681h14.151c0.931,0,1.682,0.754,1.682,1.681V22.123z"/>
	</g>
</g>
</svg>
