<?xml version="1.0" encoding="utf-8"?>
<!-- Generator: Adobe Illustrator 16.0.0, SVG Export Plug-In . SVG Version: 6.00 Build 0)  -->
<!DOCTYPE svg PUBLIC "-//W3C//DTD SVG 1.1//EN" "http://www.w3.org/Graphics/SVG/1.1/DTD/svg11.dtd">
<svg version="1.1" id="Layer_1" xmlns="http://www.w3.org/2000/svg" xmlns:xlink="http://www.w3.org/1999/xlink" x="0px" y="0px"
	 width="70px" height="31px" viewBox="0 0 70 31" enable-background="new 0 0 70 31" xml:space="preserve">
<g id="dZ9BHJ_1_">
</g>
<g>
	<g>
		<path fill-rule="evenodd" clip-rule="evenodd" fill="#0684BD" d="M53.264,18.593v4.979c0,1.047,0.85,1.896,1.896,1.896h3.838
			v-5.735h2.908v5.735h3.543c1.047,0,1.896-0.85,1.896-1.896v-4.904l-7.002-5.436L53.264,18.593z M65.857,12.553V7.518H64.07v3.53
			l-3.809-3.207l-9.836,7.829l1.689,2.368l8.182-6.35l7.83,6.299l1.926-1.9L65.857,12.553z M5.971,13.448h-6.024v12.053h11.025
			v-0.022h6.021V5.494H5.971V13.448z M2.007,15.477h2.976v1.98H2.007V15.477z M2.007,18.44h2.976v1.981H2.007V18.44z M6.93,25.446
			H3.993v-3.947H6.93V25.446z M8.936,20.422H5.959V18.44h2.976V20.422z M8.936,17.457H5.959v-1.98h2.976V17.457z M11.941,7.512h3
			V9.52h-3V7.512z M11.941,10.477h3v2.008h-3V10.477z M11.941,13.441h3v2.008h-3V13.441z M11.941,16.406h3v2.008h-3V16.406z
			 M11.941,19.371h3v2.008h-3V19.371z M7.989,7.512h3V9.52h-3V7.512z M7.989,10.477h3v2.008h-3V10.477z M24.018,16.514h-5.892v0.908
			h5.892v3.066l3.908-3.548l-3.908-3.329V16.514z M45.996,16.514h-5.891v0.908h5.891v3.066l3.908-3.548l-3.908-3.329V16.514z
			 M38.266,7.443H30.63c-0.352,0-0.638,0.286-0.638,0.638v16.717c0,0.353,0.286,0.638,0.638,0.638h7.636
			c0.354,0,0.639-0.285,0.639-0.638V8.082C38.904,7.729,38.619,7.443,38.266,7.443z M34.06,8.048h0.484
			c0.285,0,0.517,0.201,0.517,0.45s-0.232,0.45-0.517,0.45H34.06c-0.286,0-0.517-0.201-0.517-0.45S33.774,8.048,34.06,8.048z
			 M32.395,24.646H31.54c-0.327,0-0.591-0.283-0.591-0.633s0.265-0.633,0.591-0.633h0.855c0.327,0,0.591,0.283,0.591,0.633
			S32.721,24.646,32.395,24.646z M32.395,23.232H31.54c-0.327,0-0.591-0.283-0.591-0.633s0.265-0.633,0.591-0.633h0.855
			c0.327,0,0.591,0.283,0.591,0.633S32.721,23.232,32.395,23.232z M32.395,21.774H31.54c-0.327,0-0.591-0.283-0.591-0.633
			s0.265-0.633,0.591-0.633h0.855c0.327,0,0.591,0.283,0.591,0.633S32.721,21.774,32.395,21.774z M31.051,18.99
			c0-0.267,0.216-0.483,0.483-0.483h0.66c0.267,0,0.483,0.217,0.483,0.483c0,0.268-0.216,0.483-0.483,0.483h-0.66
			C31.267,19.474,31.051,19.258,31.051,18.99z M34.753,24.646h-0.881c-0.336,0-0.609-0.283-0.609-0.633s0.273-0.633,0.609-0.633
			h0.881c0.336,0,0.609,0.283,0.609,0.633S35.09,24.646,34.753,24.646z M34.753,23.232h-0.881c-0.336,0-0.609-0.283-0.609-0.633
			s0.273-0.633,0.609-0.633h0.881c0.336,0,0.609,0.283,0.609,0.633S35.09,23.232,34.753,23.232z M34.753,21.774h-0.881
			c-0.336,0-0.609-0.283-0.609-0.633s0.273-0.633,0.609-0.633h0.881c0.336,0,0.609,0.283,0.609,0.633S35.09,21.774,34.753,21.774z
			 M34.404,20.18h-0.067c-0.713,0-1.293-0.578-1.293-1.292c0-0.715,0.58-1.293,1.293-1.293h0.067c0.714,0,1.293,0.578,1.293,1.293
			C35.697,19.602,35.118,20.18,34.404,20.18z M37.281,24.646h-0.914c-0.35,0-0.633-0.283-0.633-0.633s0.284-0.633,0.633-0.633h0.914
			c0.35,0,0.633,0.283,0.633,0.633S37.631,24.646,37.281,24.646z M37.281,23.232h-0.914c-0.35,0-0.633-0.283-0.633-0.633
			s0.284-0.633,0.633-0.633h0.914c0.35,0,0.633,0.283,0.633,0.633S37.631,23.232,37.281,23.232z M37.281,21.774h-0.914
			c-0.35,0-0.633-0.283-0.633-0.633s0.284-0.633,0.633-0.633h0.914c0.35,0,0.633,0.283,0.633,0.633S37.631,21.774,37.281,21.774z
			 M36.027,18.99c0-0.267,0.217-0.483,0.484-0.483h0.66c0.266,0,0.482,0.217,0.482,0.483c0,0.268-0.217,0.483-0.482,0.483h-0.66
			C36.244,19.474,36.027,19.258,36.027,18.99z M37.967,16.788c0,0.353-0.285,0.639-0.639,0.639h-5.73
			c-0.352,0-0.638-0.286-0.638-0.639v-6.707c0-0.352,0.286-0.638,0.638-0.638h5.73c0.354,0,0.639,0.286,0.639,0.638V16.788z"/>
	</g>
</g>
</svg>
