<?xml version="1.0" encoding="utf-8"?>
<!-- Generator: Adobe Illustrator 16.0.0, SVG Export Plug-In . SVG Version: 6.00 Build 0)  -->
<!DOCTYPE svg PUBLIC "-//W3C//DTD SVG 1.1//EN" "http://www.w3.org/Graphics/SVG/1.1/DTD/svg11.dtd">
<svg version="1.1" id="Layer_1" xmlns="http://www.w3.org/2000/svg" xmlns:xlink="http://www.w3.org/1999/xlink" x="0px" y="0px"
	 width="70px" height="31px" viewBox="0 0 70 31" enable-background="new 0 0 70 31" xml:space="preserve">
<g id="dZ9BHJ_1_">
</g>
<g>
	<g>
		<path fill-rule="evenodd" clip-rule="evenodd" fill="#0684BD" d="M5.972,18.964h-6.024v12.054h11.025v-0.022h6.021V11.01H5.972
			V18.964z M2.008,20.993h2.976v1.98H2.008V20.993z M2.008,23.957h2.976v1.981H2.008V23.957z M6.931,30.963H3.993v-3.947h2.938
			V30.963z M8.937,25.938H5.96v-1.981h2.977V25.938z M8.937,22.974H5.96v-1.98h2.977V22.974z M11.942,13.029h3v2.008h-3V13.029z
			 M11.942,15.993h3v2.008h-3V15.993z M11.942,18.958h3v2.008h-3V18.958z M11.942,21.923h3v2.008h-3V21.923z M11.942,24.888h3v2.008
			h-3V24.888z M7.989,13.029h3v2.008h-3V13.029z M7.989,15.993h3v2.008h-3V15.993z M53.264,24.109v4.979
			c0,1.047,0.85,1.896,1.896,1.896h3.838V25.25h2.908v5.735h3.543c1.047,0,1.896-0.85,1.896-1.896v-4.904l-7.002-5.436
			L53.264,24.109z M65.857,18.069v-5.035H64.07v3.53l-3.809-3.207l-9.836,7.828l1.689,2.368l8.182-6.35l7.83,6.299l1.926-1.9
			L65.857,18.069z M38.266,12.959h-7.635c-0.353,0-0.639,0.286-0.639,0.638v16.718c0,0.353,0.286,0.638,0.639,0.638h7.635
			c0.354,0,0.639-0.285,0.639-0.638V13.598C38.904,13.246,38.619,12.959,38.266,12.959z M34.061,13.564h0.483
			c0.285,0,0.518,0.202,0.518,0.45c0,0.249-0.232,0.45-0.518,0.45h-0.483c-0.286,0-0.517-0.201-0.517-0.45
			C33.544,13.766,33.774,13.564,34.061,13.564z M32.396,30.162H31.54c-0.326,0-0.591-0.283-0.591-0.633s0.265-0.633,0.591-0.633
			h0.855c0.326,0,0.591,0.283,0.591,0.633S32.722,30.162,32.396,30.162z M32.396,28.749H31.54c-0.326,0-0.591-0.283-0.591-0.633
			s0.265-0.633,0.591-0.633h0.855c0.326,0,0.591,0.283,0.591,0.633S32.722,28.749,32.396,28.749z M32.396,27.291H31.54
			c-0.326,0-0.591-0.283-0.591-0.633s0.265-0.633,0.591-0.633h0.855c0.326,0,0.591,0.283,0.591,0.633S32.722,27.291,32.396,27.291z
			 M31.052,24.507c0-0.267,0.216-0.483,0.482-0.483h0.66c0.268,0,0.483,0.217,0.483,0.483c0,0.268-0.216,0.483-0.483,0.483h-0.66
			C31.268,24.99,31.052,24.774,31.052,24.507z M34.754,30.162h-0.881c-0.337,0-0.609-0.283-0.609-0.633s0.272-0.633,0.609-0.633
			h0.881c0.337,0,0.609,0.283,0.609,0.633S35.091,30.162,34.754,30.162z M34.754,28.749h-0.881c-0.337,0-0.609-0.283-0.609-0.633
			s0.272-0.633,0.609-0.633h0.881c0.337,0,0.609,0.283,0.609,0.633S35.091,28.749,34.754,28.749z M34.754,27.291h-0.881
			c-0.337,0-0.609-0.283-0.609-0.633s0.272-0.633,0.609-0.633h0.881c0.337,0,0.609,0.283,0.609,0.633S35.091,27.291,34.754,27.291z
			 M34.404,25.696h-0.066c-0.714,0-1.293-0.578-1.293-1.292c0-0.715,0.579-1.293,1.293-1.293h0.066c0.714,0,1.293,0.578,1.293,1.293
			C35.697,25.118,35.118,25.696,34.404,25.696z M37.281,30.162h-0.914c-0.35,0-0.633-0.283-0.633-0.633s0.283-0.633,0.633-0.633
			h0.914c0.35,0,0.633,0.283,0.633,0.633S37.631,30.162,37.281,30.162z M37.281,28.749h-0.914c-0.35,0-0.633-0.283-0.633-0.633
			s0.283-0.633,0.633-0.633h0.914c0.35,0,0.633,0.283,0.633,0.633S37.631,28.749,37.281,28.749z M37.281,27.291h-0.914
			c-0.35,0-0.633-0.283-0.633-0.633s0.283-0.633,0.633-0.633h0.914c0.35,0,0.633,0.283,0.633,0.633S37.631,27.291,37.281,27.291z
			 M36.027,24.507c0-0.267,0.217-0.483,0.484-0.483h0.66c0.266,0,0.482,0.217,0.482,0.483c0,0.268-0.217,0.483-0.482,0.483h-0.66
			C36.244,24.99,36.027,24.774,36.027,24.507z M37.967,22.305c0,0.353-0.285,0.639-0.639,0.639h-5.729
			c-0.353,0-0.639-0.286-0.639-0.639v-6.707c0-0.352,0.286-0.638,0.639-0.638h5.729c0.354,0,0.639,0.286,0.639,0.638V22.305z
			 M55.011,8.899l-3.272-4.878L51.049,6.61L34.713-0.022l-1.029,0.063L16.731,6.28l-0.749-2.076l-3.468,4.911l5.366,0.951
			l-0.477-1.887l15.698-6.122V6.32h-2.056l2.904,4.799l2.782-4.792h-1.958V2.194l15.65,5.789l-0.628,2.383L55.011,8.899z"/>
	</g>
</g>
</svg>
