<?xml version="1.0" encoding="utf-8"?>
<!-- Generator: Adobe Illustrator 16.0.0, SVG Export Plug-In . SVG Version: 6.00 Build 0)  -->
<!DOCTYPE svg PUBLIC "-//W3C//DTD SVG 1.1//EN" "http://www.w3.org/Graphics/SVG/1.1/DTD/svg11.dtd">
<svg version="1.1" id="Layer_1" xmlns="http://www.w3.org/2000/svg" xmlns:xlink="http://www.w3.org/1999/xlink" x="0px" y="0px"
	 width="18px" height="20px" viewBox="0 0 18 20" enable-background="new 0 0 18 20" xml:space="preserve">
<path fill-rule="evenodd" clip-rule="evenodd" fill="#0684BD" d="M17.305,3.958h-2.172l-0.75,14.52c0,0.828-0.672,1.5-1.5,1.5h-7.75
	c-0.829,0-1.5-0.672-1.5-1.5l-0.75-14.52H0.695c-0.104,0-0.188-0.228-0.188-0.331V3.168c0-0.103,0.084-0.187,0.188-0.187h4.812
	V1.522c0-0.829,0.672-1.5,1.5-1.5h4c0.829,0,1.5,0.671,1.5,1.5v1.459h4.797c0.104,0,0.188,0.084,0.188,0.187v0.603
	C17.492,3.874,17.408,3.958,17.305,3.958z M11.508,1.757c0-0.415-0.336-0.751-0.75-0.751h-3.5c-0.414,0-0.75,0.336-0.75,0.751v1.225
	h5V1.757z M3.842,3.98l0.645,13.621c0,0.983,0.305,1.378,1.303,1.378h6.404c1.075,0,1.303-0.217,1.303-1.378L14.174,3.98H3.842z
	 M12.343,17.221h-0.625c-0.104,0-0.188-0.083-0.188-0.188V5.783c0-0.104,0.084-0.188,0.188-0.188h0.625
	c0.104,0,0.188,0.084,0.188,0.188v11.25C12.53,17.138,12.446,17.221,12.343,17.221z M9.302,17.221H8.677
	c-0.104,0-0.188-0.083-0.188-0.188V5.783c0-0.104,0.084-0.188,0.188-0.188h0.625c0.104,0,0.188,0.084,0.188,0.188v11.25
	C9.49,17.138,9.406,17.221,9.302,17.221z M6.298,17.221H5.673c-0.104,0-0.188-0.083-0.188-0.188V5.783
	c0-0.104,0.084-0.188,0.188-0.188h0.625c0.104,0,0.188,0.084,0.188,0.188v11.25C6.486,17.138,6.402,17.221,6.298,17.221z"/>
</svg>
