<?xml version="1.0" encoding="utf-8"?>
<!-- Generator: Adobe Illustrator 14.0.0, SVG Export Plug-In . SVG Version: 6.00 Build 43363)  -->
<!DOCTYPE svg PUBLIC "-//W3C//DTD SVG 1.1//EN" "http://www.w3.org/Graphics/SVG/1.1/DTD/svg11.dtd">
<svg version="1.1" id="Layer_1" xmlns="http://www.w3.org/2000/svg" xmlns:xlink="http://www.w3.org/1999/xlink" x="0px" y="0px"
	 width="20.619px" height="38.896px" viewBox="0 0 20.619 38.896" enable-background="new 0 0 20.619 38.896" xml:space="preserve">
<g>
	<path opacity="0" fill="#CBDAE3" d="M0,33.96h2.926c0,0,2.292,5.191,5.135,4.926s12.29-17.01,12.531-19.521
		C21.176,15.459,11.905,0.563,8.53,0.188S2.89,4.861,2.89,4.861L0,5.126V33.96z"/>
	<path opacity="0.0909" fill="#C3D2DC" d="M0,33.282h3.221c0,0,2.083,4.839,4.668,4.597c2.585-0.241,11.4-15.937,11.846-18.605
		c0.199-3.869-8.284-17.915-11.352-18.256C5.315,0.677,3.131,5.43,3.131,5.43L0,5.762V33.282z"/>
	<path opacity="0.1818" fill="#BBCAD4" d="M0,32.604h3.516c0,0,1.874,4.486,4.2,4.27c2.327-0.218,10.511-14.864,11.163-17.69
		C18.692,15.352,10.998,2.154,8.236,1.848C5.475,1.541,3.372,6,3.372,6L0,6.399V32.604z"/>
	<path opacity="0.2727" fill="#B4C3CD" d="M0,31.926h3.812c0,0,1.665,4.134,3.732,3.94c2.068-0.193,9.621-13.79,10.478-16.774
		c-0.57-3.795-7.478-16.143-9.932-16.415C5.635,2.404,3.613,6.569,3.613,6.569L0,7.035V31.926z"/>
	<path opacity="0.3636" fill="#ADBCC7" d="M0,31.248h4.106c0,0,1.456,3.78,3.265,3.611s8.731-12.717,9.792-15.858
		C16.21,15.243,10.09,3.745,7.942,3.507C5.795,3.268,3.854,7.139,3.854,7.139L0,7.671V31.248z"/>
	<path opacity="0.4545" fill="#A6B5C0" d="M0,30.569h4.401c0,0,1.247,3.429,2.798,3.283c1.551-0.145,7.842-11.644,9.107-14.942
		c-1.339-3.721-6.67-14.37-8.511-14.574C5.955,4.132,4.094,7.708,4.094,7.708L0,8.308V30.569z"/>
	<path opacity="0.5455" fill="#9FAEBA" d="M0,29.892h4.696c0,0,1.038,3.075,2.33,2.955c1.293-0.121,6.952-10.571,8.424-14.027
		C13.727,15.135,9.183,5.336,7.649,5.166c-1.534-0.17-3.314,3.113-3.314,3.113L0,8.944V29.892z"/>
	<path opacity="0.6364" fill="#98A7B4" d="M0,29.213h4.991c0,0,0.829,2.724,1.863,2.627s6.062-9.498,7.739-13.111
		C12.484,15.082,8.729,6.132,7.502,5.995C6.274,5.859,4.576,8.848,4.576,8.848L0,9.581V29.213z"/>
	<path opacity="0.7273" fill="#91A1AE" d="M0,28.535h5.286c0,0,0.62,2.37,1.396,2.298c0.775-0.072,5.173-8.425,7.054-12.195
		c-2.492-3.61-5.46-11.71-6.38-11.813c-0.92-0.102-2.539,2.593-2.539,2.593L0,10.217V28.535z"/>
	<path opacity="0.8182" fill="#8B9BA9" d="M0,27.857h5.582c0,0,0.411,2.018,0.928,1.969c0.517-0.048,4.283-7.351,6.369-11.279
		c-2.876-3.574-5.056-10.824-5.67-10.893c-0.614-0.068-2.15,2.333-2.15,2.333L0,10.853V27.857z"/>
	<path opacity="0.9091" fill="#8595A3" d="M0,27.179h5.876c0,0,0.202,1.665,0.46,1.642c0.259-0.024,3.393-6.278,5.685-10.364
		c-3.261-3.537-4.654-9.938-4.96-9.972s-1.763,2.073-1.763,2.073L0,11.49V27.179z"/>
	<path fill="#7F8F9E" d="M0,26.501h6.171l-0.007,1.313c0,0,2.503-5.205,5-9.448c-3.646-3.5-4.25-9.052-4.25-9.052l-1.375,1.813
		l-5.539,1V26.501z"/>
</g>
<polygon fill="#FFFFFF" points="0,29.232 5.138,29.232 5.138,36.73 16.123,18.364 5.138,0 5.138,7.496 0,7.496 "/>
</svg>
