<?xml version="1.0" encoding="utf-8"?>
<!-- Generator: Adobe Illustrator 14.0.0, SVG Export Plug-In . SVG Version: 6.00 Build 43363)  -->
<!DOCTYPE svg PUBLIC "-//W3C//DTD SVG 1.1//EN" "http://www.w3.org/Graphics/SVG/1.1/DTD/svg11.dtd">
<svg version="1.1" id="Layer_1" xmlns="http://www.w3.org/2000/svg" xmlns:xlink="http://www.w3.org/1999/xlink" x="0px" y="0px"
	 width="38.723px" height="20.593px" viewBox="0 0 38.723 20.593" enable-background="new 0 0 38.723 20.593" xml:space="preserve">
<g>
	<path opacity="0" fill="#CBDAE3" d="M5.747,0c0,0,0.156,1.819-0.818,2.926s-5.182,2.739-4.917,5.583
		c0.266,2.843,16.5,12.667,19.512,12.083C23.428,21.177,38.325,11.905,38.7,8.53s-3.85-4.909-4.672-5.64
		C32.706,1.492,33.247,0,33.247,0H5.747z"/>
	<path opacity="0.0909" fill="#C3D2DC" d="M6.274,0c0,0,0.218,2.214-0.667,3.221c-0.885,1.007-5.154,2.534-4.913,5.12
		c0.242,2.585,15.699,11.669,18.83,11.661c3.94,0.099,18.204-8.574,18.545-11.642c0.341-3.068-3.932-4.548-4.679-5.213
		C32.188,1.876,32.657,0,32.657,0H6.274z"/>
	<path opacity="0.1818" fill="#BBCAD4" d="M6.801,0c0,0,0.28,2.61-0.517,3.516c-0.796,0.906-5.126,2.33-4.909,4.656
		c0.217,2.326,14.897,10.671,18.148,11.239c3.977-0.386,17.607-8.46,17.914-11.222c0.308-2.761-4.013-4.187-4.686-4.785
		C31.67,2.26,32.068,0,32.068,0H6.801z"/>
	<path opacity="0.2727" fill="#B4C3CD" d="M7.329,0c0,0,0.342,3.006-0.366,3.812C6.255,4.617,1.864,5.936,2.058,8.003
		s14.097,9.673,17.466,10.817c4.013-0.871,17.011-8.347,17.284-10.801c0.272-2.455-4.096-3.826-4.693-4.358
		C31.153,2.644,31.478,0,31.478,0H7.329z"/>
	<path opacity="0.3636" fill="#ADBCC7" d="M7.856,0c0,0,0.404,3.401-0.215,4.106C7.021,4.811,2.57,6.025,2.739,7.835
		c0.169,1.81,13.296,8.675,16.785,10.395c4.049-1.356,16.414-8.233,16.653-10.381c0.238-2.148-4.178-3.465-4.7-3.93
		C30.635,3.028,30.888,0,30.888,0H7.856z"/>
	<path opacity="0.4545" fill="#A6B5C0" d="M8.383,0c0,0,0.467,3.797-0.064,4.401C7.788,5.005,3.276,6.115,3.421,7.667
		c0.145,1.551,12.494,7.676,16.103,9.972c4.085-1.841,15.817-8.12,16.022-9.96c0.204-1.841-4.259-3.104-4.707-3.503
		C30.118,3.413,30.299,0,30.299,0H8.383z"/>
	<path opacity="0.5455" fill="#9FAEBA" d="M8.911,0c0,0,0.528,4.193,0.086,4.696C8.554,5.2,3.982,6.206,4.103,7.498
		s11.693,6.679,15.42,9.549c4.121-2.325,15.223-8.005,15.393-9.54c0.171-1.534-4.341-2.742-4.715-3.075
		C29.6,3.797,29.709,0,29.709,0H8.911z"/>
	<path opacity="0.6364" fill="#98A7B4" d="M9.438,0c0,0,0.591,4.589,0.236,4.991C9.321,5.394,4.688,6.295,4.785,7.33
		c0.096,1.034,10.892,5.68,14.738,9.126c4.157-2.81,14.626-7.892,14.762-9.119c0.137-1.227-4.422-2.381-4.722-2.647
		C29.083,4.181,29.121,0,29.121,0H9.438z"/>
	<path opacity="0.7273" fill="#91A1AE" d="M9.966,0c0,0,0.653,4.984,0.387,5.286c-0.266,0.302-4.958,1.099-4.886,1.875
		c0.072,0.775,10.091,4.682,14.056,8.704c4.193-3.295,14.029-7.778,14.131-8.699c0.103-0.92-4.504-2.021-4.729-2.22
		C28.565,4.565,28.531,0,28.531,0H9.966z"/>
	<path opacity="0.8182" fill="#8B9BA9" d="M10.493,0c0,0,0.715,5.38,0.538,5.582C10.854,5.783,6.1,6.475,6.148,6.992
		s9.29,3.684,13.375,8.282c4.229-3.78,13.433-7.665,13.501-8.278c0.067-0.614-4.587-1.66-4.736-1.792
		C28.047,4.949,27.941,0,27.941,0H10.493z"/>
	<path opacity="0.9091" fill="#8595A3" d="M11.021,0c0,0,0.777,5.776,0.688,5.876c-0.088,0.101-4.903,0.689-4.878,0.947
		c0.024,0.259,8.488,2.686,12.692,7.86c4.266-4.265,12.836-7.551,12.87-7.858s-4.668-1.298-4.743-1.365
		C27.53,5.333,27.352,0,27.352,0H11.021z"/>
	<path fill="#7F8F9E" d="M11.548,0l0.839,6.171L7.512,6.655c0,0,7.688,1.688,12.011,7.438c4.302-4.75,12.239-7.438,12.239-7.438
		l-4.75-0.938L26.762,0H11.548z"/>
</g>
<polygon fill="#FFFFFF" points="8.656,0 8.656,5.138 1.158,5.138 19.524,16.123 37.888,5.138 30.392,5.138 30.392,0 "/>
</svg>
