<?xml version="1.0" encoding="utf-8"?>
<!-- Generator: Adobe Illustrator 16.0.0, SVG Export Plug-In . SVG Version: 6.00 Build 0)  -->
<!DOCTYPE svg PUBLIC "-//W3C//DTD SVG 1.1//EN" "http://www.w3.org/Graphics/SVG/1.1/DTD/svg11.dtd">
<svg version="1.1" id="Layer_1" xmlns="http://www.w3.org/2000/svg" xmlns:xlink="http://www.w3.org/1999/xlink" x="0px" y="0px"
	 width="18px" height="18px" viewBox="0 0 18 18" enable-background="new 0 0 18 18" xml:space="preserve">
<g>
	<g>
		<path fill-rule="evenodd" clip-rule="evenodd" fill="#B3B3B3" d="M12.494,6.511c-1.375,0-2.492,1.116-2.492,2.492
			c0,0.567,0.196,1.083,0.516,1.502H7.473c0.319-0.419,0.515-0.936,0.515-1.502c0-1.376-1.116-2.492-2.492-2.492
			S3.003,7.627,3.003,9.003c0,1.377,1.116,2.493,2.493,2.493c0.051,0,0.098-0.012,0.148-0.015v0.015h6.999v-0.015
			c1.307-0.078,2.346-1.151,2.346-2.478C14.988,7.627,13.871,6.511,12.494,6.511z M5.521,10.49c-0.826,0-1.495-0.668-1.495-1.494
			c0-0.825,0.669-1.495,1.495-1.495c0.825,0,1.495,0.669,1.495,1.495C7.016,9.822,6.346,10.49,5.521,10.49z M12.521,10.49
			c-0.826,0-1.496-0.668-1.496-1.494c0-0.825,0.67-1.495,1.496-1.495c0.824,0,1.494,0.669,1.494,1.495
			C14.016,9.822,13.346,10.49,12.521,10.49z M17.006,3.507H0.995c-0.552,0-1,0.447-1,1v8.985c0,0.553,0.448,1,1,1h16.011
			c0.553,0,1-0.447,1-1V4.507C18.006,3.955,17.559,3.507,17.006,3.507z M17.012,12.492c0,0.553-0.449,1-1,1H2.015
			c-0.552,0-1-0.447-1-1V5.509c0-0.552,0.448-1,1-1h13.997c0.551,0,1,0.448,1,1V12.492z"/>
	</g>
</g>
</svg>
